<?xml version="1.0" encoding="utf-8"?>

<!DOCTYPE svg PUBLIC "-//W3C//DTD SVG 1.1//EN" "http://www.w3.org/Graphics/SVG/1.1/DTD/svg11.dtd">
<svg version="1.1" id="Layer_1" xmlns="http://www.w3.org/2000/svg" xmlns:xlink="http://www.w3.org/1999/xlink" x="0px" y="0px"
	 viewBox="0 0 1351.24 1635.813" enable-background="new 0 0 1351.24 1635.813" xml:space="preserve">
<g>
	<path fill="none" stroke="#000000" stroke-width="3" stroke-linecap="round" stroke-linejoin="round" stroke-miterlimit="10" d="
		M1003.592,136.443c10.07-13.092,10.769-12.702,8.117-15.304c-18-17.661,29.365-10.667-69.246-42.973
		c-29.885-9.791-73.022-24.218-103.332-16.047c-44.244,11.927-43.715,35.695-53.439,61.282c-1.039,2.735-1.525,5.45-0.337,8.069
		c2.111,4.651-4.286,8.116-2.892,16.225c0.967,5.623,1.62,2.29,27.068-1.43c30.423-4.448,30.404-7.498,34.197-4.493
		c0.222,0.176,1.148-0.537,1.747-0.836"/>
	<path fill="none" stroke="#000000" stroke-width="3" stroke-linecap="round" stroke-linejoin="round" stroke-miterlimit="10" d="
		M982.48,463.008c-6.288,10.846-33.052,15.857-44.92,15.766c-12.15-0.093-1.736,5.656-15.25,43.086
		c-28.659,79.38-111.975,119.956-138.375,125.317"/>
	<path fill="none" stroke="#000000" stroke-width="3" stroke-linecap="round" stroke-linejoin="round" stroke-miterlimit="10" d="
		M644.236,1380.265c2.253,6.462-0.922,12.25-2.86,17.912c-3.204,9.363-2.959,18.915-2.347,28.344
		c2.243,34.56,26.687,45.928,7.013,71.891c-2.053,2.708-2.3,8.14-0.459,9.426c1.397,0.975,6.796-0.591,8.506-2.718
		c9.793-12.179,9.931-8.988,9.927-14.351c-0.01-12.449,5.474-7.256-0.465-37.732c-0.146-0.75-0.539-1.541-0.412-2.239
		c2.03-11.141-3.21-12.887-1.007-39.991c0.253-3.112-0.228-6.283-0.378-9.427"/>
	<path fill="none" stroke="#000000" stroke-width="3" stroke-linecap="round" stroke-linejoin="round" stroke-miterlimit="10" d="
		M368.879,463.008c7.255,11.17,34.196,15.887,44.92,15.801c3.599-0.029,6.908,5.141,7.216,9.801
		c1.554,23.541,13.721,58.051,51.16,100.638c28.208,32.087,57.924,44.692,66.964,49.366c51.059,26.401,13.83,4.94,87.212-27.633
		c13.223-5.87,33.71-18.781,39.221-14.112"/>
	<path fill="none" stroke="#000000" stroke-width="3" stroke-linecap="round" stroke-linejoin="round" stroke-miterlimit="10" d="
		M658.61,1068.973"/>
	<path fill="none" stroke="#000000" stroke-width="3" stroke-linecap="round" stroke-linejoin="round" stroke-miterlimit="10" d="
		M717.496,1037.128"/>
	<path fill="none" stroke="#000000" stroke-width="3" stroke-linecap="round" stroke-linejoin="round" stroke-miterlimit="10" d="
		M667.594,679.071c-6.337-3.855-28.74,6.943-35.897,12.181c-7.548,5.525-12.504,13.37-17.562,21.056
		c-0.114,0.173-0.431,0.308-0.425,0.451c0.399,10.123-6.205,17.9-9.118,26.915c-1.594,4.934-0.323,9.621-0.221,14.409
		c0.521,24.616,15.803,33.05,23.179,41.387c5.157,5.829,12.717,4.539,18.944,7.1c1.714,0.705,3.496-8.541,3.551-10.753
		c2.523-101.246,0.517-96.536,0.517-96.536c3.407-3.163,3.058-9.021,8.469-10.904c8.503-2.958,15.915-8.497,25.155-9.98
		c8.067-1.295,66.279-16.806,75.506-19.998c0.802-0.278,1.991-0.379,2.651,0.018c22.617,13.599,9.961,3.651,29.933,33.014
		c10.736,15.784,15.296,35.143,16.594,50.014c4.16,47.649-26.964,79.884-27.117,80.885c-3.743,24.581-45.609,38.931-35.016,52.48
		c4.312,5.515,8.105,11.307,11.102,17.606c0.974,2.047,3.012,2.903,4.23,4.829c4.074,6.44,5.423,13.812,7.853,20.785"/>
	<path fill="none" stroke="#000000" stroke-width="3" stroke-linecap="round" stroke-linejoin="round" stroke-miterlimit="10" d="
		M359.446,124.315c-1.646,0.535-2.963,0.763-1.441,3.203c2.7,4.33,2.234,9.433,2.31,14.316
		c0.164,10.581-106.039,55.198-113.644,58.329c-28.035,11.544-37.118,14.22-28.327,24.816c3.972,4.787,8.898,9.284,14.13,11.23
		c9.196,3.422,18.352,7.89,28.597,8.091c4.492,0.088,8.707,2.71,13.513,0.946c3.426-1.258,14.304-4.988,15.236-1.447"/>
	<path fill="none" stroke="#000000" stroke-width="3" stroke-linecap="round" stroke-linejoin="round" stroke-miterlimit="10" d="
		M991.464,144.079c98.727,65.818,182.399,59.464,127.096,92.49c-3.541,2.115-0.733,5.573-2.057,8.211
		c-0.459,0.914,1.618,1.704,2.963,2.215c39.622,15.061,56.117,28.674,82.657,31.957c2.436,0.301,4.818-0.007,7.201,0.334"/>
	<path fill="none" stroke="#000000" stroke-width="3" stroke-linecap="round" stroke-linejoin="round" stroke-miterlimit="10" d="
		M1050.308,275.694c0.633,11.295,128.23,67.659,136.537,71.463c2.847,1.304,5.473,3.12,6.757,6.248"/>
	<path fill="none" stroke="#000000" stroke-width="3" stroke-linecap="round" stroke-linejoin="round" stroke-miterlimit="10" d="
		M301.05,275.694c-0.29,4.325-3.78,6.664-6.815,7.895c-9.572,3.883-18.276,9.363-27.241,14.267
		c-71.332,39.019-104.177,45.74-109.237,55.549"/>
	<path fill="none" stroke="#000000" stroke-width="3" stroke-linecap="round" stroke-linejoin="round" stroke-miterlimit="10" d="
		M1177.88,193.042c22.51,4.2,25.853,7.106,103.795,36.754c41.223,15.681,46.85,15.3,41.814,24.823
		c-6.574,12.43-29.581,35.096-43.641,35.001c-0.15-0.001-0.36-0.065-0.44,0.009c-4.133,3.859-9.559,2.593-14.4,3.493
		c-4.045,0.753-8.289-0.069-12.072-1.372c-9.819-3.384-20.099-4.41-30.156-6.524c-3.591-0.755-6.923-2.763-10.76-2.344"/>
	<path fill="none" stroke="#000000" stroke-width="3" stroke-linecap="round" stroke-linejoin="round" stroke-miterlimit="10" d="
		M753.39,1152.074c6.445,17.563-13.827,30.862-37.757,59.273c-1.64,1.948-9.6,5.825-6.634,9.389
		c18.088,21.735,26.091,78.873-4.174,110.517c-2.861,2.991-0.465,6.661-1.896,10.058c-2.462,5.844-13.07,11.353-10.31,22.815
		c1.116,4.636-1.904,14.056,4.043,21.633c5.355,6.823,1.272,14.949-0.278,26.854c-0.894,6.869-1.141,13.844-2.408,20.635
		c-1.067,5.716,0.623,11.386-0.87,17.126c-1.765,6.787-4.316,13.546-4.266,20.628c0.034,4.796-2.018,9.681-0.015,14.324
		c0.74,1.714-0.266,2.991-0.698,3.541c-2.521,3.211-1.939,6.84-2.145,10.433c-1.959,34.218-3.98,57.051-3.98,57.051
		c-2.564,46.137-2.244,58.85-2.244,58.85c-0.172,0.833-0.516,2.226,1.313,1.789"/>
	<path fill="none" stroke="#000000" stroke-width="3" stroke-linecap="round" stroke-linejoin="round" stroke-miterlimit="10" d="
		M353.606,301.298c-38.426,28.973-62.165,51.279-120.333,86.331c-3.805,2.293-3.567,2.772-5.891,8
		c3.957-0.093,0.585,2.574,36.355-21.157c5.085-3.373,10.621-6.167,14.853-10.736"/>
	<path fill="none" stroke="#000000" stroke-width="3" stroke-linecap="round" stroke-linejoin="round" stroke-miterlimit="10" d="
		M959.571,177.769c8.919,5.638,114.152,50.479,127.571,51.208"/>
	<path fill="none" stroke="#000000" stroke-width="3" stroke-linecap="round" stroke-linejoin="round" stroke-miterlimit="10" d="
		M997.753,301.298c14.197,11.511,5.579,2.826,25.16,19.31c42.642,35.897,83.9,58.956,97.004,69.205
		c5.473,4.28,2.24,7.123-3.118,3.558c-1.002-0.667-45.892-29.521-47.623-31.431"/>
	<path fill="none" stroke="#000000" stroke-width="3" stroke-linecap="round" stroke-linejoin="round" stroke-miterlimit="10" d="
		M392.686,177.769c-56.142,23.57,42.479-14.288-127.122,52.107"/>
	<path fill="none" stroke="#000000" stroke-width="3" stroke-linecap="round" stroke-linejoin="round" stroke-miterlimit="10" d="
		M1013.474,122.967c22.333-3.16,95.289,33.696,151.789,57.142c3.544,1.471,7.151,3.275,9.922,6.194"/>
	<path fill="none" stroke="#000000" stroke-width="3" stroke-linecap="round" stroke-linejoin="round" stroke-miterlimit="10" d="
		M936.213,322.41c38.929,35.722,33.59,35.166,89.275,81.443c17.22,14.311,32.375,24.111,30.211,35.348"/>
	<path fill="none" stroke="#000000" stroke-width="3" stroke-linecap="round" stroke-linejoin="round" stroke-miterlimit="10" d="
		M415.146,322.41C323.03,411.295,298.303,422.77,297.008,432.014"/>
	<path fill="none" stroke="#000000" stroke-width="3" stroke-linecap="round" stroke-linejoin="round" stroke-miterlimit="10" d="
		M500.493,200.229c-2.955-0.074-6.212,1.409-8.547-1.788c-3.266-4.47-112.819,72.081-114.532,83.092"/>
	<path fill="none" stroke="#000000" stroke-width="3" stroke-linecap="round" stroke-linejoin="round" stroke-miterlimit="10" d="
		M1151.827,266.71c20.299,16.651,97.039,30.761,121.283,36.385"/>
	<path fill="none" stroke="#000000" stroke-width="3" stroke-linecap="round" stroke-linejoin="round" stroke-miterlimit="10" d="
		M175.725,189.448c1.662,9.45-0.041,2.774-18.376,7.352c-17.253,4.308-8.468,3.208-82.251,30.81
		c-37.218,13.923-33.272,11.251-46.237,18.477c-10.733,5.982,15.684,28.316,24.212,35.473c5.656,4.748,12.938,5.737,19.157,8.867
		c5.129,2.581,10.111,1.47,15.05,2.583c7.99,1.801,15.968-4.582,26.906-4.74"/>
	<path fill="none" stroke="#000000" stroke-width="3" stroke-linecap="round" stroke-linejoin="round" stroke-miterlimit="10" d="
		M886.801,334.089c26.984,45.056,59.007,81.134,91.192,113.192c3.557,3.543,6.141,7.616,7.182,12.582"/>
	<path fill="none" stroke="#000000" stroke-width="3" stroke-linecap="round" stroke-linejoin="round" stroke-miterlimit="10" d="
		M196.388,269.405c-56.097,24.154-74.914,23.168-118.138,33.69"/>
	<path fill="none" stroke="#000000" stroke-width="3" stroke-linecap="round" stroke-linejoin="round" stroke-miterlimit="10" d="
		M464.558,334.089c-39.905,63.666-70.269,90.994-90.235,112.348c-3.685,3.942-7.09,8.236-9.037,13.426"/>
	<path fill="none" stroke="#000000" stroke-width="3" stroke-linecap="round" stroke-linejoin="round" stroke-miterlimit="10" d="
		M664,1496.158c8.322,7.663,8.741,104.465,10.246,119.046c0.08,0.771,1.327,2.858-1.262,2.686"/>
	<path fill="none" stroke="#000000" stroke-width="3" stroke-linecap="round" stroke-linejoin="round" stroke-miterlimit="10" d="
		M522.953,202.924c0.815,4.749,6.454,7.501,5.39,13.027c6.792,5.539-3.232,2.137-30.063,31.026
		c-22.361,24.077-18.4,19.709-62.023,49.83"/>
	<path fill="none" stroke="#000000" stroke-width="3" stroke-linecap="round" stroke-linejoin="round" stroke-miterlimit="10" d="
		M646.931,515.564c3.639-6.176,5.175-12.424,3.373-19.82c-1.046-4.292-0.45-51.885-1.151-58.337
		c-3.178-29.248,9.462-18.497-25.578-15.247c-26.17,2.427-13.06,0.652-22.013,26.025"/>
	<path fill="none" stroke="#000000" stroke-width="3" stroke-linecap="round" stroke-linejoin="round" stroke-miterlimit="10" d="
		M1042.223,154.86c0,0,77.363,32.123,106.01,38.182"/>
	<path fill="none" stroke="#000000" stroke-width="3" stroke-linecap="round" stroke-linejoin="round" stroke-miterlimit="10" d="
		M690.952,1101.315c36.723-19.732,29.501-15.112,43.544-26.985c2.56-2.164,4.34-5.103,8.067-5.997
		c1.423-0.341,1.402-3.268,2.693-4.791c16.857-19.886,14.348-21.584,25.108-39.098c27.158-44.206,23.864-90.883,0.21-124.45
		c-1.604-2.276-2.861-2.624-5.056-1.716"/>
	<path fill="none" stroke="#000000" stroke-width="3" stroke-linecap="round" stroke-linejoin="round" stroke-miterlimit="10" d="
		M701.733,1346.126c16.888,22.73,26.378,61.374,14.466,97.505c-1.132,3.432-3.578,3.953-6.38,4.462"/>
	<path fill="none" stroke="#000000" stroke-width="3" stroke-linecap="round" stroke-linejoin="round" stroke-miterlimit="10" d="
		M881.411,139.138c16.792,3.108,33.951,0.627,50.744,3.239c12.574,1.956,32.202,8.456,53.469,10.237"/>
	<path fill="none" stroke="#000000" stroke-width="3" stroke-linecap="round" stroke-linejoin="round" stroke-miterlimit="10" d="
		M389.542,205.619c-7.532,6.328-92.132,43.572-101.967,43.572"/>
	<path fill="none" stroke="#000000" stroke-width="3" stroke-linecap="round" stroke-linejoin="round" stroke-miterlimit="10" d="
		M629.862,849.765c1.083,1.195,3.652-0.667,4.003,1.802c0.328,2.305-1.62,3.689-3.156,4.37c-4.734,2.099-10.933,8.456-16.983,9.341
		c-2.749,0.402-5.86,1.249-7.468,5.045c-1.354,3.199-4.775,5.565-7.404,8.176c-13.893,13.798-26.339,33.188-25.474,34.994
		c2.298,4.798-0.791,8.172-2.851,11.713c-8.147,14.007-14.482,40.583-8.615,57.56c4.793,13.873,6.189,10.832,15.402,27.803
		c9.5,17.5,22.309,32.357,36.852,45.793c2.453,2.266,5.679,3.738,3.687,8.171c-0.75,1.669,3.688,4.586,6.614,4.408
		c2.703-0.164,5.392-0.57,8.087-0.869"/>
	<path fill="none" stroke="#000000" stroke-width="3" stroke-linecap="round" stroke-linejoin="round" stroke-miterlimit="10" d="
		M609.199,706.921c-7.951,11.603-21.764,30.268-19.505,55.228c0.603,6.669-2.823,16.515,13.64,40.918
		c0.928,1.376,1.523,2.977,2.272,4.475"/>
	<path fill="none" stroke="#000000" stroke-width="3" stroke-linecap="round" stroke-linejoin="round" stroke-miterlimit="10" d="
		M261.521,306.239c0,0-15.124,10.75-65.138,33.229c-35.385,15.904-24.016,9.793-34.134,17.53"/>
	<path fill="none" stroke="#000000" stroke-width="3" stroke-linecap="round" stroke-linejoin="round" stroke-miterlimit="10" d="
		M472.643,139.138c-40.12,3.438-21.697,0.62-45.38,2.551c-18.693,1.525-23.006,5.788-61.528,10.924"/>
	<path fill="none" stroke="#000000" stroke-width="3" stroke-linecap="round" stroke-linejoin="round" stroke-miterlimit="10" d="
		M964.063,207.416c10.213,5.264,88.678,42.369,99.721,41.326"/>
	<path fill="none" stroke="#000000" stroke-width="3" stroke-linecap="round" stroke-linejoin="round" stroke-miterlimit="10" d="
		M549.4,766.2c-1.401,5.12,11.29,53.224,51.692,93.917c2.238,2.255,4.213,4.771,6.309,7.167"/>
	<path fill="none" stroke="#000000" stroke-width="3" stroke-linecap="round" stroke-linejoin="round" stroke-miterlimit="10" d="
		M565.627,133.748c1.831-3.969,0.977-7.732-0.378-11.703c-2.438-7.144-9.178-45.278-38.218-55.327
		c-8.814-3.05-17.396-6.156-26.997-5.43c-3.528,0.267-7.157-1.278-10.775-1.607c-27.75-2.526-111.496,28.595-136.095,38.598
		c-18.065,7.346-2.702,19.267-13.483,25.138"/>
	<path fill="none" stroke="#000000" stroke-width="3" stroke-linecap="round" stroke-linejoin="round" stroke-miterlimit="10" d="
		M1089.838,306.688c53.426,31.528,86.564,38.903,99.272,50.31"/>
	<path fill="none" stroke="#000000" stroke-width="3" stroke-linecap="round" stroke-linejoin="round" stroke-miterlimit="10" d="
		M914.202,455.821c-1.664-5.783,3.664-6.755,0.948-14.84c-3.71-11.043-7.321-22.11-13.039-32.346
		c-0.581-1.041-1.233-2.635-0.841-3.531c5.538-12.674-16.011-28.072-18.89-31.104c-14.327-15.085-70.201-20.131-89.465-19.344
		c-11.488,0.47-32.227-8.468-35.932-3.498"/>
	<path fill="none" stroke="#000000" stroke-width="3" stroke-linecap="round" stroke-linejoin="round" stroke-miterlimit="10" d="
		M586.739,351.608c-4.108-3.91-15.219,3.918-37.285,3.213c-16.023-0.512-47.056,5.417-48.073,5.735
		c-0.871,0.272-2.567-0.089-1.695-1.243c3.278-4.336,1.88-9.972,4.401-14.443"/>
	<path fill="none" stroke="#000000" stroke-width="3" stroke-linecap="round" stroke-linejoin="round" stroke-miterlimit="10" d="
		M312.73,153.512c-6.464-0.2-7.744,2.984-30.915,12.765c-30.289,12.786-77.79,27.213-77.79,27.213"/>
	<path fill="none" stroke="#000000" stroke-width="3" stroke-linecap="round" stroke-linejoin="round" stroke-miterlimit="10" d="
		M1273.109,293.661c6.92,24.504-31.556,47.078-58.828,52.196c-2.279,0.428-8.879-0.294-10.408,3.028
		c-0.359,0.779-1.374,1.63-2.196,1.76c-6.252,0.986-9.269,6.22-13.526,9.876c-5.669,4.868,3.863,10.16-34.579,27.807
		c-3.128,1.436-7.149,0.981-10.207,2.504c-4.847,2.414-10.812,1.752-14.979,6.063c-2.077,2.149-3.568-0.941-5.307-1.716"/>
	<path fill="none" stroke="#000000" stroke-width="3" stroke-linecap="round" stroke-linejoin="round" stroke-miterlimit="10" d="
		M725.091,1226.191c-4.237,0.37,1.514,4.338,4.025,15.277c5.271,22.967,8.156,46.537-4.06,72.749
		c-2.816,6.042-3.526,6.23-10.297,4.957"/>
	<path fill="none" stroke="#000000" stroke-width="3" stroke-linecap="round" stroke-linejoin="round" stroke-miterlimit="10" d="
		M78.25,293.661c-6.87,24.067,32.311,49.413,63.778,52.628c8.161,0.834,2.785,3.809,10.357,5.696
		c12.945,3.227,11.639,14.848,17.113,19.312c27.263,22.231,45.233,17.395,55.19,26.577"/>
	<path fill="none" stroke="#000000" stroke-width="3" stroke-linecap="round" stroke-linejoin="round" stroke-miterlimit="10" d="
		M234.12,237.961c0.15,0.15,0.457,0.366,0.426,0.44c-1.093,2.585,3.182,5.375,0.793,7.009c-11.899,8.136-10.072,2.939-23.18,9.276
		c-10.914,5.277-47.466,24.154-68.328,26.398"/>
	<path fill="none" stroke="#000000" stroke-width="3" stroke-linecap="round" stroke-linejoin="round" stroke-miterlimit="10" d="
		M830.652,415.393c-2.901,2.34-6.706,0.988-9.937,2.584c-4.62,2.281-9.433,4.202-13.852,6.879
		c-12.947,7.843,39.793,62.508,34.714,76.834c-1.523,4.296,7.426,5.235,1.231,12.549c-32.598,38.489-83.265,50.866-128.465,63.429
		c-3.739,1.039-7.056,1.796-10.344-0.591c-1.499-1.089-1.857,0.102-2.49,0.925"/>
	<path fill="none" stroke="#000000" stroke-width="3" stroke-linecap="round" stroke-linejoin="round" stroke-miterlimit="10" d="
		M848.171,200.678c13.809,0.061,10.055-4.817,19.272,0.523c9.444,5.472,56.542,36.918,65.428,44.623
		c18.421,15.972,51.499,32.771,37.926,41.092c-7.903,4.845-16.296,8.259-25.59,9.517c-11.419,1.546-17.84,5.728-26.066,1.723
		c-0.887-0.432-1.844-1.875-2.674,0.005c-0.438,0.991-1.505,1.845-0.915,3.134c1.246,2.721,3.69,3.931,6.286,4.943"/>
	<path fill="none" stroke="#000000" stroke-width="3" stroke-linecap="round" stroke-linejoin="round" stroke-miterlimit="10" d="
		M701.733,1356.458c-1.203,19.675,7.734,14.568,10.637,48.076c1.241,14.327-1.728,43.153-7.34,56.65
		c-2.944,7.081-1.368,14.902-1.35,22.396c0.004,1.5,1.804,3.125,3.028,4.461c1.7,1.856,2.851,3.944,3.559,6.32"/>
	<path fill="none" stroke="#000000" stroke-width="3" stroke-linecap="round" stroke-linejoin="round" stroke-miterlimit="10" d="
		M744.406,863.69c-9.307-2.119-12.731,0.21-72.32,22.011"/>
	<path fill="none" stroke="#000000" stroke-width="3" stroke-linecap="round" stroke-linejoin="round" stroke-miterlimit="10" d="
		M431.542,130.603c-1.002,0.308-64.33,13.295-71.647,13.027"/>
	<path fill="none" stroke="#000000" stroke-width="3" stroke-linecap="round" stroke-linejoin="round" stroke-miterlimit="10" d="
		M592.578,981.38c13.659,27.912,11.191,29.686,55.7,65.583"/>
	<path fill="none" stroke="#000000" stroke-width="3" stroke-linecap="round" stroke-linejoin="round" stroke-miterlimit="10" d="
		M285.329,251.437c0.333,2.748,0.853,4.748,3.952,6.454c14.962,8.239,31.158,12.208,47.662,15.759
		c7.342,1.58,14.411,0.566,21.605,0.696"/>
	<path fill="none" stroke="#000000" stroke-width="3" stroke-linecap="round" stroke-linejoin="round" stroke-miterlimit="10" d="
		M566.3,241.105c-16.716,15.924-27.919,35.828-39.675,55.299c-6.281,10.403-15.983,18.229-7.297,21.593
		c6.055,2.345,11.956,3.157,18.48,1.88c11.365-2.223,17.39,5.078,28.277,3.495c4.219-0.614,8.172,0.564,11.67,3.08"/>
	<path fill="none" stroke="#000000" stroke-width="3" stroke-linecap="round" stroke-linejoin="round" stroke-miterlimit="10" d="
		M587.637,512.419c3.534,1.767,24.881,3.345,29.635,3.507c11.747,0.402,33.171-8.781,32.913,9.072
		c-1.129,78.255,7.256,70.058-37.859,54.852c-9.326-3.143,0.357,2.518-22.893-8.584c-9.473-4.523-35.779-17.86-44.351-24.853
		c-15.53-12.669-15.238-4.231-38.281-32.662c-1.464-1.806-2.408-3.886-2.489-6.274"/>
	<path fill="none" stroke="#000000" stroke-width="3" stroke-linecap="round" stroke-linejoin="round" stroke-miterlimit="10" d="
		M1116.789,237.512c-3.517-0.407-6.366,1.646-9.406,2.77c-9.606,3.551-19.499,5.285-29.668,4.754
		c-6.125-0.32-14.068-3.734-15.317-2.625c-1.548,1.375,0.144,1.938,0.528,2.718c0.888,1.801,0.999,3.834,2.551,5.506
		c8.247,8.884-38.311,20.237-50.178,22.94c-7.237,1.649-14.413,0.615-21.59,1.22"/>
	<path fill="none" stroke="#000000" stroke-width="3" stroke-linecap="round" stroke-linejoin="round" stroke-miterlimit="10" d="
		M998.202,138.24c-0.599,1.198-1.222,3.43-1.793,3.417c-2.67-0.063-4.65,2.304-7.185,1.932
		c-32.432-4.765-42.509-9.142-67.382-12.118c-0.404-0.048-0.752-0.567-1.127-0.867"/>
	<path fill="none" stroke="#000000" stroke-width="3" stroke-linecap="round" stroke-linejoin="round" stroke-miterlimit="10" d="
		M662.204,425.725c-10.282,2.932-9.41,5.117-6.738,77.262"/>
	<path fill="none" stroke="#000000" stroke-width="3" stroke-linecap="round" stroke-linejoin="round" stroke-miterlimit="10" d="
		M246.249,288.72c-10.878,3.26-13.382,4.726-64.655,26.572c-1.487,0.633-4.01,0.742-3.623,3.525"/>
	<path fill="none" stroke="#000000" stroke-width="3" stroke-linecap="round" stroke-linejoin="round" stroke-miterlimit="10" d="
		M495.552,135.769c10.727,3.311,3.162-2.355,14.344,3.427c9.716,5.024,40.129,6.654,53.038,11.164
		c10.547,3.685,6.219-13.496-0.315-18.368c-3.922-2.925-7.694-6.93-5.639-13.105c0.464-1.393-0.487-3.257-0.786-4.904"/>
	<path fill="none" stroke="#000000" stroke-width="3" stroke-linecap="round" stroke-linejoin="round" stroke-miterlimit="10" d="
		M549.905,419.436c-11.752,1.721-20.203-14.1-28.666-4.865c-2.975,3.246-7.966-0.767-12.676,6.652
		c-22.566,35.55-28.623,46.556-18.527,69.69c1.992,4.564,5.133,8.484,6.531,13.388c1.046,3.668,4.992,2.458,7.744,3.178"/>
	<path fill="none" stroke="#000000" stroke-width="3" stroke-linecap="round" stroke-linejoin="round" stroke-miterlimit="10" d="
		M706.899,152.165c0.134,1.001-2.342,65.238-1.129,67.831c1.852,3.961,0.762,7.824-0.443,11.676"/>
	<path fill="none" stroke="#000000" stroke-width="3" stroke-linecap="round" stroke-linejoin="round" stroke-miterlimit="10" d="
		M916.897,303.993c-7.726,4.309-48.195,11.879-62.906,14.725c-1.857,0.359-3.183,1.548-4.922,1.896"/>
	<path fill="none" stroke="#000000" stroke-width="3" stroke-linecap="round" stroke-linejoin="round" stroke-miterlimit="10" d="
		M651.872,926.578c2.962,4.888,1.785,5.968,1.629,33.239c-0.028,4.925,0.751,9.885-0.237,14.833
		c-0.889,4.45,1.391,8.933,0.065,13.499c-1.498,5.16-5.245,6.838-0.5,14.305c3.299,5.191-0.762,26.396,2.637,28.786"/>
	<path fill="none" stroke="#000000" stroke-width="3" stroke-linecap="round" stroke-linejoin="round" stroke-miterlimit="10" d="
		M1099.72,286.474c22.994,7.991,44.935,18.529,67.379,27.85"/>
	<path fill="none" stroke="#000000" stroke-width="3" stroke-linecap="round" stroke-linejoin="round" stroke-miterlimit="10" d="
		M435.36,303.993c2.577,4.569,55.589,12.378,66.93,16.62"/>
	<path fill="none" stroke="#000000" stroke-width="3" stroke-linecap="round" stroke-linejoin="round" stroke-miterlimit="10" d="
		M781.69,237.512c1.601,3.514,4.565,6.111,7.309,8.388c11.633,9.659,17.015,21.245,45.318,65.234
		c0.955,1.484,1.817,2.764,1.726,4.538"/>
	<path fill="none" stroke="#000000" stroke-width="3" stroke-linecap="round" stroke-linejoin="round" stroke-miterlimit="10" d="
		M648.279,343.073c0.922-1.021,0.425-2.466,1.232-3.671c1.679-2.507-1.394-3.483-44.811-9.759
		c-3.851-0.557-7.729,1.255-11.693,0.019c-2.132-0.665-4.473-0.89-6.717-0.878c-1.343,0.007-3.749-1.354-3.929,1.27
		c-0.128,1.866,1.014,3.929,3.045,4.423c17.892,4.352,39.98,7.205,46.249,7.38c16.358,0.458,10.704,1.409,17.932,3.175
		c1.364,0.333,3.598,1.669,1.116,4.487c-1.775,2.016,1.424,5.122,0.72,7.928"/>
	<path fill="none" stroke="#000000" stroke-width="3" stroke-linecap="round" stroke-linejoin="round" stroke-miterlimit="10" d="
		M700.834,706.921c-1.092,5.081,1.374,9.887,1.272,14.822c0,0.004-1.56,73.683-1.56,73.684c-0.421,4.854,4.514,7.263,8.789,4.428
		c19.388-12.861,35.642-19.56,40.77-40.86c1.259-5.232-11.511-43.638-33.928-51.816c-4.945-1.804-9.477-5.096-12.647-9.69"/>
	<path fill="none" stroke="#000000" stroke-width="3" stroke-linecap="round" stroke-linejoin="round" stroke-miterlimit="10" d="
		M782.588,396.976c-0.449-0.15-0.98-0.537-1.336-0.414c-8.028,2.757-16.707,0.266-24.729,3.079c0,0-13.295-1.3-43.098,5.039
		c-5.462,1.162-3.61,3.527-13.939,3.527"/>
	<path fill="none" stroke="#000000" stroke-width="3" stroke-linecap="round" stroke-linejoin="round" stroke-miterlimit="10" d="
		M706.225,132.849c9.355,1.187,16.731-12.278,17.186-17.509c0.282-3.246,11.042-10.474,7.953-34.596
		c-0.734-5.734,1.917-17.221-2.387-25.071c-3.172-5.785-14.274-30.875-39.835-34.577c-2.22-0.321-15.297-7.209-24.302,0.28
		c-2.559,2.128-21.228-1.417-36.714,25.262c-2.471,4.256-8.862,10.904-6.461,25.138c1.605,9.517-6.254,18.099,1.221,32.664
		c2.783,5.423,6.112,20.981,16.36,26.256c8.824,4.542-6.077,9.726,5.888,22.366"/>
	<path fill="none" stroke="#000000" stroke-width="3" stroke-linecap="round" stroke-linejoin="round" stroke-miterlimit="10" d="
		M690.054,425.725c14.379,5.098,6.593,40.658,7.187,72.77"/>
	<path fill="none" stroke="#000000" stroke-width="3" stroke-linecap="round" stroke-linejoin="round" stroke-miterlimit="10" d="
		M695.893,1256.736c4.911,4.442,5.143,10.564,4.309,16.144c-1.805,12.076-3.741,24.29-10.183,35.044
		c-20.391,34.032-28.499,41.338-35.14,55.206c-1.263,2.637-3.104,5.867-7.05,5.905"/>
	<path fill="none" stroke="#000000" stroke-width="3" stroke-linecap="round" stroke-linejoin="round" stroke-miterlimit="10" d="
		M644.236,403.265c2.371,0.707,0.991,2.664,1.348,4.043c0,0-11.419-6.939-71.426-9.81c-1.174-0.056-2.392,0.826-3.59,1.275"/>
	<path fill="none" stroke="#000000" stroke-width="3" stroke-linecap="round" stroke-linejoin="round" stroke-miterlimit="10" d="
		M703.08,922.535c-3.695,4.301-4.178,9.665-3.932,14.818c0.639,13.392-4.083,53.353,0.339,62.893"/>
	<path fill="none" stroke="#000000" stroke-width="3" stroke-linecap="round" stroke-linejoin="round" stroke-miterlimit="10" d="
		M793.369,228.079c4.654-3.034,22.05-14.155,26.505-10.334c9.591,8.226,20.207,15.217,28.792,24.666
		c26.739,29.43,30.979,30.73,66.884,54.395"/>
	<path fill="none" stroke="#000000" stroke-width="3" stroke-linecap="round" stroke-linejoin="round" stroke-miterlimit="10" d="
		M348.665,133.748c-8.568-0.039-6.764-13.392-13.429-11.094c-6.895,2.377-14.355,1.566-21.184,4.293
		c-1.001,0.4-86.806,31.995-132.097,55.651c-6.614,3.455-5.442,7.669-7.578,6.176"/>
	<path fill="none" stroke="#000000" stroke-width="3" stroke-linecap="round" stroke-linejoin="round" stroke-miterlimit="10" d="
		M665.797,148.122c-12.939-1.855-15.198,2.422-20.185,4.997c-1.142,0.59-0.615,2.132-0.417,3.075
		c0.524,2.49,1.81,49.819,0.706,65.137c-0.297,4.12-0.718,7.997,1.478,11.689"/>
	<path fill="none" stroke="#000000" stroke-width="3" stroke-linecap="round" stroke-linejoin="round" stroke-miterlimit="10" d="
		M706.674,125.662c-13.097-9.077-40.706-11.904-61.498-0.375c-2.01,1.115-2.358,4.084-4.533,5.316"/>
	<path fill="none" stroke="#000000" stroke-width="3" stroke-linecap="round" stroke-linejoin="round" stroke-miterlimit="10" d="
		M765.519,202.025c-6.965-1.016-15.125,12.429-53.304,40.185c-3.965,2.882-3.339,10.291-8.236,11.922"/>
	<path fill="none" stroke="#000000" stroke-width="3" stroke-linecap="round" stroke-linejoin="round" stroke-miterlimit="10" d="
		M449.734,400.57c-6.412-0.425-9.917,2.762-12.719,8.465c-5.934,12.076-11.328,24.284-14.737,37.338
		c-0.763,2.923-0.458,5.354,1.403,7.651"/>
	<path fill="none" stroke="#000000" stroke-width="3" stroke-linecap="round" stroke-linejoin="round" stroke-miterlimit="10" d="
		M617.284,1065.379c-10.556,6.198-20.929,22.631-20.162,25.139c4.235,13.844-25.682,33.439-3.597,58.369
		c2.589,2.922,5.642,5.433,8.486,8.128"/>
	<path fill="none" stroke="#000000" stroke-width="3" stroke-linecap="round" stroke-linejoin="round" stroke-miterlimit="10" d="
		M621.776,1272.907c4.423,36.267,5.998,31.993,28.698,57.542c2.491,2.804,5.468,4.093,9.034,4.447"/>
	<path fill="none" stroke="#000000" stroke-width="3" stroke-linecap="round" stroke-linejoin="round" stroke-miterlimit="10" d="
		M704.428,344.87c2.963,6.684,0.707,26.721,0.481,32.792c-0.421,11.286,17.631-10.936,28.717-11.68"/>
	<path fill="none" stroke="#000000" stroke-width="3" stroke-linecap="round" stroke-linejoin="round" stroke-miterlimit="10" d="
		M902.972,401.917c4.884-0.601,8.258,1.548,10.32,5.845c3.896,8.119,19.287,39.424,13.487,46.262"/>
	<path fill="none" stroke="#000000" stroke-width="3" stroke-linecap="round" stroke-linejoin="round" stroke-miterlimit="10" d="
		M751.144,448.185c-3.89-0.206-1.39,0.855,5.351,25.166c8.815,31.793,8.819,31.026,7.417,34.212
		c-5.203,11.827,37.621,12.747,76.18-0.962c0.845-0.3,1.79-0.32,2.688-0.469"/>
	<path fill="none" stroke="#000000" stroke-width="3" stroke-linecap="round" stroke-linejoin="round" stroke-miterlimit="10" d="
		M763.722,511.97c-62.726,17.065-62.349-30.262-61.969,58.844c0.008,1.947,0.279,3.893,0.429,5.84"/>
	<path fill="none" stroke="#000000" stroke-width="3" stroke-linecap="round" stroke-linejoin="round" stroke-miterlimit="10" d="
		M606.054,426.174c-5.49-1.285-44.715,1.547-52.557,1.444c-6.536-0.086-4.681,5.088-38.164,56.513
		c-0.617,0.948-1.587,1.745-1.383,3.137c0.418,2.857-0.949,5.628-2.792,7.031c-3.923,2.987-1.33,6.756-2.033,10.056
		c-0.553,2.593,31.968,15.037,60.067,11.85c5.817-0.66,12.134-0.061,17.548-3.336"/>
	<path fill="none" stroke="#000000" stroke-width="3" stroke-linecap="round" stroke-linejoin="round" stroke-miterlimit="10" d="
		M710.268,1128.716c5.395-3.361,5.051-18.29,1.818-23.82c-1.897-3.243-9.598-5.894-12.149-4.031
		c-2.541,1.856-5.466,9.884-4.451,13.013c4.408,13.587-5.583,19.707,0.857,32.356c2.133,4.189-3.432,6.762-2.181,11.212
		c2.703,9.609-9.057,14.337-16.505,25.296c-3.927,5.779-9.095,8.387-15.469,9.181c-1.906,0.238-2.995,1.391-3.009,2.377
		c-0.148,10.287-15.915,18.968-22.269,30.269c-9.7,17.251-26.817,34.961-16.481,46.542"/>
	<path fill="none" stroke="#000000" stroke-width="3" stroke-linecap="round" stroke-linejoin="round" stroke-miterlimit="10" d="
		M743.508,1068.973c4.077,5.803,4.12,12.889,8.028,18.903c10.278,15.817,13.056,60.865-4.453,67.293
		c-3.12,1.146-4.108,3.433-4.474,6.338"/>
	<path fill="none" stroke="#000000" stroke-width="3" stroke-linecap="round" stroke-linejoin="round" stroke-miterlimit="10" d="
		M517.113,318.367c-0.83,4.417,0.06,6.578,4.506,7.054c8.666,0.928,16.964,3.613,25.586,4.661
		c7.771,0.944,15.674,0.443,23.362,2.211"/>
	<path fill="none" stroke="#000000" stroke-width="3" stroke-linecap="round" stroke-linejoin="round" stroke-miterlimit="10" d="
		M764.62,416.741c40.141-4.014,10.221,2.753,42.224,1.778c9.004-0.274,9.427-10.101,22.453-4.905
		c12.876,5.136,18.553,16.792,24.618,27.884c8.419,15.394,13.226,20.758,11.063,37.256c-0.704,5.368-8.276,22.691-10.817,26.14
		c-2.375,3.223-5.001,4.356-8.686,3.931"/>
	<path fill="none" stroke="#000000" stroke-width="3" stroke-linecap="round" stroke-linejoin="round" stroke-miterlimit="10" d="
		M834.245,318.816c2.274,5.648-0.301,6.312-31.429,11.323c-7.321,1.178-14.84-0.073-22.026,2.153"/>
	<path fill="none" stroke="#000000" stroke-width="3" stroke-linecap="round" stroke-linejoin="round" stroke-miterlimit="10" d="
		M927.229,94.668c62.005,16.146,64.753,13.818,63.786,18.417"/>
	<path fill="none" stroke="#000000" stroke-width="3" stroke-linecap="round" stroke-linejoin="round" stroke-miterlimit="10" d="
		M701.733,800.803c-7.105,13.68-34.065,22.536-45.414,28.665c-7.066,3.816-12.768,7.435-38.99,28.887
		c-2.044,1.672-4.513,3.373-4.087,6.684"/>
	<path fill="none" stroke="#000000" stroke-width="3" stroke-linecap="round" stroke-linejoin="round" stroke-miterlimit="10" d="
		M690.952,1360.5c-6.782-0.095-20.811,21.81-23.983,27.552c-7.492,13.559-19.509,28.81-10.225,57.369
		c1.023,3.147,3.105,4.087,5.909,4.469"/>
	<path fill="none" stroke="#000000" stroke-width="3" stroke-linecap="round" stroke-linejoin="round" stroke-miterlimit="10" d="
		M602.91,747.349c-11.61,6.56-2.18,35.946,6.597,47.274c0.504,0.65,1.341,1.858,1.488,3.035"/>
	<path fill="none" stroke="#000000" stroke-width="3" stroke-linecap="round" stroke-linejoin="round" stroke-miterlimit="10" d="
		M746.652,255.929c-8.963,9.229-0.313,4.335,13.002,40.437c3.907,10.593,9.04,20.64,13.551,30.963
		c0.855,1.956,2.202,3.85,4.891,3.616"/>
	<path fill="none" stroke="#000000" stroke-width="3" stroke-linecap="round" stroke-linejoin="round" stroke-miterlimit="10" d="
		M410.654,98.711c-4.259-0.23-54.802,12.128-54.802,12.128"/>
	<path fill="none" stroke="#000000" stroke-width="3" stroke-linecap="round" stroke-linejoin="round" stroke-miterlimit="10" d="
		M600.664,277.041c-3.801,5.864-22.188,49.696-22.579,50.713c-0.634,1.651-2.273,3.559-4.822,3.19"/>
	<path fill="none" stroke="#000000" stroke-width="3" stroke-linecap="round" stroke-linejoin="round" stroke-miterlimit="10" d="
		M598.418,250.539c2.174,0.537,5.214,8.928,16.604,9.685c8.558,0.569,27.23,7.184,35.503,10.08"/>
	<path fill="none" stroke="#000000" stroke-width="3" stroke-linecap="round" stroke-linejoin="round" stroke-miterlimit="10" d="
		M562.482,650.772c-0.15,0.749-0.53,1.535-0.414,2.24c1.446,8.803-5.382,14.239-8.639,21.085
		c-14.666,30.82-15.847,50.679-13.728,83.575c0.177,2.751,6.857,10.604,9.723,12.145"/>
	<path fill="none" stroke="#000000" stroke-width="3" stroke-linecap="round" stroke-linejoin="round" stroke-miterlimit="10" d="
		M776.748,389.34c-15.834,0.588-14.957-0.043-28.36,1.802c-7.039,0.969-14.151,2.642-21.505,2.496
		c-9.071-0.181-23.457,8.033-29.642,3.338"/>
	<path fill="none" stroke="#000000" stroke-width="3" stroke-linecap="round" stroke-linejoin="round" stroke-miterlimit="10" d="
		M1125.324,398.773c-0.449,0.299-1.216,0.528-1.301,0.909c-2.102,9.433-10.518,11.539-17.559,15.274
		c-11.273,5.979-35.619,11.129-37.288,10.766c-0.859-0.187-1.491,0.286-1.769,0.915c-1.758,3.972-5.474,4.143-8.997,4.992
		c-3.599,0.867-6.898,2.951-10.796,2.632"/>
	<path fill="none" stroke="#000000" stroke-width="3" stroke-linecap="round" stroke-linejoin="round" stroke-miterlimit="10" d="
		M377.414,281.982c-0.11,1.825,0.508,3.041,2.213,4.096c7.81,4.828,15.758,8.854,25.163,10.025
		c12.322,1.534,18.536,6.432,26.561,2.113c5.233-2.816,5.417,4.897,3.488,5.571c-2.931,1.024-5.156,4.542-8.912,2.9"/>
	<path fill="none" stroke="#000000" stroke-width="3" stroke-linecap="round" stroke-linejoin="round" stroke-miterlimit="10" d="
		M745.754,427.072c4.898-3.668,13.402-0.036,22.009-0.482c10.214-0.529,20.349,1.465,30.544,0.873
		c2.982-0.173,2.76,3.709,5.394,3.651"/>
	<path fill="none" stroke="#000000" stroke-width="3" stroke-linecap="round" stroke-linejoin="round" stroke-miterlimit="10" d="
		M984.726,197.534c-47.778-22.141-44.793-21.322-48.513-21.561"/>
	<path fill="none" stroke="#000000" stroke-width="3" stroke-linecap="round" stroke-linejoin="round" stroke-miterlimit="10" d="
		M699.487,896.482c3.431,2.677-0.283,4.764,1.04,17.054c1.342,12.463,6.527,8.716,10.191,12.592
		c10.302,10.896,21.394,11.254,17.376,20.603c-2.676,6.226,4.79,7.651,0.664,19.85c-6.105,18.055-22.574,32.323-25.237,33.19
		c-15.567,5.073-4.231,14.327-16.51,24.85c-6.4,5.486-13.352,9.939-20.759,13.818c-3.089,1.617-5.448-0.603-8.092-1.359"/>
	<path fill="none" stroke="#000000" stroke-width="3" stroke-linecap="round" stroke-linejoin="round" stroke-miterlimit="10" d="
		M483.424,207.416c-17.975,9.418-25.942,16.899-47.615,30.545"/>
	<path fill="none" stroke="#000000" stroke-width="3" stroke-linecap="round" stroke-linejoin="round" stroke-miterlimit="10" d="
		M643.337,427.522c0.458,24.556-1.219,49.112,0,73.668"/>
	<path fill="none" stroke="#000000" stroke-width="3" stroke-linecap="round" stroke-linejoin="round" stroke-miterlimit="10" d="
		M537.327,361.49c-15.653,1.758-31.163,4.147-45.818,10.332"/>
	<path fill="none" stroke="#000000" stroke-width="3" stroke-linecap="round" stroke-linejoin="round" stroke-miterlimit="10" d="
		M568.771,150.368c24.733,23.335,17.508,39.901,59.309,66.906c3.944,2.548,8.162,4.678,12.066,7.281
		c1.491,0.994,2.896,1.313,4.539,1.278"/>
	<path fill="none" stroke="#000000" stroke-width="3" stroke-linecap="round" stroke-linejoin="round" stroke-miterlimit="10" d="
		M863.892,375.864c-7.99-8.625-33.672-11.839-45.369-13.027"/>
	<path fill="none" stroke="#000000" stroke-width="3" stroke-linecap="round" stroke-linejoin="round" stroke-miterlimit="10" d="
		M414.697,175.074c-14.823,6.888-29.647,13.775-44.47,20.663"/>
	<path fill="none" stroke="#000000" stroke-width="3" stroke-linecap="round" stroke-linejoin="round" stroke-miterlimit="10" d="
		M660.407,999.797c-0.449,5.091-0.911,10.181-1.343,15.273c-0.241,2.843,0.672,5.603,0.123,8.558
		c-0.571,3.076-1.941,6.489-1.883,8.949c0.099,4.184-2.25,7.16-2.674,10.8c-0.262,2.246-1.394,3.693-3.224,4.443
		c-12.247,5.018-22.187,15.402-32.325,13.517"/>
	<path fill="none" stroke="#000000" stroke-width="3" stroke-linecap="round" stroke-linejoin="round" stroke-miterlimit="10" d="
		M742.61,866.386c-3.647,2.727-26.596,20.529-37.232,23.121c-2.691,0.656-6.289,1.294-7.737,4.709
		c-0.068,0.161-0.857-0.033-1.298,0.029c-9.332,1.297-16.126,7.954-24.075,12.028c-7.771,3.983-15.224,9.672-19.447,18.086
		c-0.48,0.957-1.049,1.807-1.867,2.179c-12.718,5.772-21.484,15.566-28.34,27.408c-0.755,1.304-2.62,1.939-3.482,3.214
		c-12.273,18.136-15.068,23.477-5.437,47.129c0.688,1.689,1.485,3.303,3.589,3.596"/>
	<path fill="none" stroke="#000000" stroke-width="3" stroke-linecap="round" stroke-linejoin="round" stroke-miterlimit="10" d="
		M600.215,448.185c3.693-0.36,1.142,0.429-9.355,39.999c-1.364,5.144-2.256,10.401-4.571,15.252"/>
	<path fill="none" stroke="#000000" stroke-width="3" stroke-linecap="round" stroke-linejoin="round" stroke-miterlimit="10" d="
		M845.475,146.774c-1.308-0.113-32.474,7.134-43.123,11.23"/>
	<path fill="none" stroke="#000000" stroke-width="3" stroke-linecap="round" stroke-linejoin="round" stroke-miterlimit="10" d="
		M649.626,282.881c-3.903,0.036-0.717,0.86-0.577,38.182c0.019,5.062,1.409,10.374-1.219,15.272"/>
	<path fill="none" stroke="#000000" stroke-width="3" stroke-linecap="round" stroke-linejoin="round" stroke-miterlimit="10" d="
		M783.037,150.817c-27.112,21.483-10.47,35.239-69.671,72.248c-1.494,0.934-3.548,0.971-5.345,1.42"/>
	<path fill="none" stroke="#000000" stroke-width="3" stroke-linecap="round" stroke-linejoin="round" stroke-miterlimit="10" d="
		M588.536,202.025c5.662,2.629,9.491,7.635,14.204,11.44c29.078,23.477,36.678,24.476,41.356,37.572
		c0.683,1.911,1.75,2.771,3.284,3.544"/>
	<path fill="none" stroke="#000000" stroke-width="3" stroke-linecap="round" stroke-linejoin="round" stroke-miterlimit="10" d="
		M473.542,132.849c-9.722-6.383-29.348-5.709-40.428-3.144"/>
	<path fill="none" stroke="#000000" stroke-width="3" stroke-linecap="round" stroke-linejoin="round" stroke-miterlimit="10" d="
		M770.46,562.28c0.092,2.296-1.178,3.774-3.155,4.462c-10.069,3.501-19.882,7.689-30.488,9.707c-3.231,0.615-6.736,1.533-9.929,2.9"
		/>
	<path fill="none" stroke="#000000" stroke-width="3" stroke-linecap="round" stroke-linejoin="round" stroke-miterlimit="10" d="
		M919.143,129.705c-11.586-1.978-29.394-3.764-39.529,2.246"/>
	<path fill="none" stroke="#000000" stroke-width="3" stroke-linecap="round" stroke-linejoin="round" stroke-miterlimit="10" d="
		M708.471,428.42c-1.564,20.011,1.296,57.836,0,65.583"/>
	<path fill="none" stroke="#000000" stroke-width="3" stroke-linecap="round" stroke-linejoin="round" stroke-miterlimit="10" d="
		M183.361,251.437c-30.719,9.637-28.731,9.506-39.529,11.679"/>
	<path fill="none" stroke="#000000" stroke-width="3" stroke-linecap="round" stroke-linejoin="round" stroke-miterlimit="10" d="
		M505.884,147.224c4.463-0.764,8.506,1.172,12.543,2.361c7.722,2.274,15.587,3.86,23.359,5.855c1.433,0.368,2.429-0.558,3.627-0.131
		"/>
	<path fill="none" stroke="#000000" stroke-width="3" stroke-linecap="round" stroke-linejoin="round" stroke-miterlimit="10" d="
		M692.749,1235.175c-7.235-1.514-8.057,5.491-13.935,11.219c-17.048,16.614-15.178,18.987-22.35,23.526
		c-6.294,3.984-3.508,5.273-11.33,15.564"/>
	<path fill="none" stroke="#000000" stroke-width="3" stroke-linecap="round" stroke-linejoin="round" stroke-miterlimit="10" d="
		M606.503,392.035c5.428,1.834,10.977,2.263,16.618,1.332c0,0,24.232,5.057,24.235,5.057c2.198,0.525,3.923-0.33,5.864-0.55"/>
	<path fill="none" stroke="#000000" stroke-width="3" stroke-linecap="round" stroke-linejoin="round" stroke-miterlimit="10" d="
		M228.281,401.468c1.252,13.118,49.505,24.707,53.904,24.258c1.005-0.103,1.281,0.603,1.859,1.294c6.974,8.352,15.54,1.804,16,9.043
		c0.793,12.468,42.132,18.635,54.461,20.207"/>
	<path fill="none" stroke="#000000" stroke-width="3" stroke-linecap="round" stroke-linejoin="round" stroke-miterlimit="10" d="
		M703.08,232.571c-1.027,9.004-0.395,17.979,0.448,26.952c0.548,5.832,2.854,11.453,1.399,17.53
		c-3.084,12.883-0.166,22.599-2.296,41.763"/>
	<path fill="none" stroke="#000000" stroke-width="3" stroke-linecap="round" stroke-linejoin="round" stroke-miterlimit="10" d="
		M659.958,460.762c-0.598,11.673-1.431,23.344-0.449,35.037"/>
	<path fill="none" stroke="#000000" stroke-width="3" stroke-linecap="round" stroke-linejoin="round" stroke-miterlimit="10" d="
		M838.737,315.223c-20.86,11.336-24.856,0.026-39.08,6.289"/>
	<path fill="none" stroke="#000000" stroke-width="3" stroke-linecap="round" stroke-linejoin="round" stroke-miterlimit="10" d="
		M901.176,228.079c-22.983-13.418-25.222-18.603-34.139-20.663"/>
	<path fill="none" stroke="#000000" stroke-width="3" stroke-linecap="round" stroke-linejoin="round" stroke-miterlimit="10" d="
		M659.059,1269.314c1.91,7.059-1.04,13.356-3.196,19.747c-0.444,1.317-0.862,2.512,0.078,3.587c3.986,4.56-2.724,10.693,4.325,20.34
		c1.558,2.132-0.338,11.23,1.12,16.495c0.169,0.609,0.548,1.333,0.328,1.8c-4.425,9.398-0.574,9.784-13.742,30.207
		c-1.914,2.968,1.124,14.164-6.412,19.252c-1.842,1.244-1.389,3.547-1.757,5.374c-0.891,4.429-2.827,8.785-1.407,13.464"/>
	<path fill="none" stroke="#000000" stroke-width="3" stroke-linecap="round" stroke-linejoin="round" stroke-miterlimit="10" d="
		M741.711,260.87c-6.2-3.609-27.079,6.538-35.936,6.738"/>
	<path fill="none" stroke="#000000" stroke-width="3" stroke-linecap="round" stroke-linejoin="round" stroke-miterlimit="10" d="
		M626.717,1174.534c-3.643,4.595,17.473,19.554,26.053,30.995"/>
	<path fill="none" stroke="#000000" stroke-width="3" stroke-linecap="round" stroke-linejoin="round" stroke-miterlimit="10" d="
		M1167.998,251.437c11.212,2.736,21.913,7.029,32.791,10.781"/>
	<path fill="none" stroke="#000000" stroke-width="3" stroke-linecap="round" stroke-linejoin="round" stroke-miterlimit="10" d="
		M621.776,955.775c4.315,5.006-3.81,24.003,28.299,38.631"/>
	<path fill="none" stroke="#000000" stroke-width="3" stroke-linecap="round" stroke-linejoin="round" stroke-miterlimit="10" d="
		M1052.105,434.709c0.021,5.517-4.16,8.031-8.14,9.757c-12.313,5.338-25.044,9.459-38.576,10.466
		c-2.024,0.151-3.94,0.614-5.407,2.222c-0.496,0.543-1.165,1.278-1.783,1.307c-7.458,0.345-16.73,3.911-21.559,2.302"/>
	<path fill="none" stroke="#000000" stroke-width="3" stroke-linecap="round" stroke-linejoin="round" stroke-miterlimit="10" d="
		M692.3,460.762c0.351,10.478,1.376,20.947,0.449,31.444"/>
	<path fill="none" stroke="#000000" stroke-width="3" stroke-linecap="round" stroke-linejoin="round" stroke-miterlimit="10" d="
		M655.466,429.992c-4.423-14.062,2.757-27.084-3.129-39.312c-0.117-0.243,0.088-0.804-0.03-0.861
		c-4.945-2.4-6.826-8.091-12.029-10.542c-5.278-2.486-9.423-7.557-14.595-9.844c-7.99-3.533-14.438-9.166-21.897-13.293
		c-4.137-2.289-8.9-2.664-13.452-3.64c-1.098-0.235-1.824,0.526-2.696,0.904"/>
	<path fill="none" stroke="#000000" stroke-width="3" stroke-linecap="round" stroke-linejoin="round" stroke-miterlimit="10" d="
		M433.563,446.837c-3.225,1.799-5.414,4.765-8.1,7.17c-2.124,1.902-1.534,4.549-1.663,6.762c-0.409,7.036-3.667,13.182-5.509,19.758
		"/>
	<path fill="none" stroke="#000000" stroke-width="3" stroke-linecap="round" stroke-linejoin="round" stroke-miterlimit="10" d="
		M694.995,1108.502c-2.787-1.505-5.333-1.335-8.118,0.397c-8.882,5.522-27.245,13.417-31.86,24.758"/>
	<path fill="none" stroke="#000000" stroke-width="3" stroke-linecap="round" stroke-linejoin="round" stroke-miterlimit="10" d="
		M659.508,519.157c-0.743,10.182-0.743,20.364,0,30.545"/>
	<path fill="none" stroke="#000000" stroke-width="3" stroke-linecap="round" stroke-linejoin="round" stroke-miterlimit="10" d="
		M518.012,199.33c-0.639-3.196-3.674-3.556-5.879-4.387c-20.859-7.858-18.84-0.493-21.522-1.004"/>
	<path fill="none" stroke="#000000" stroke-width="3" stroke-linecap="round" stroke-linejoin="round" stroke-miterlimit="10" d="
		M695.444,586.088c-9.894,3.259-20.068,5.679-29.647,9.882"/>
	<path fill="none" stroke="#000000" stroke-width="3" stroke-linecap="round" stroke-linejoin="round" stroke-miterlimit="10" d="
		M702.631,881.209c-0.041,0.011-34.139,12.577-34.139,12.577"/>
	<path fill="none" stroke="#000000" stroke-width="3" stroke-linecap="round" stroke-linejoin="round" stroke-miterlimit="10" d="
		M638.845,513.318c-0.45-3.328,3.945-3.584,1.781-6.276c-0.793-0.986-1.523-1.63-3.154-0.976c-14.358,5.76-32.338,2.447-37.73,2.969
		c-4.816,0.467-7.479-4.507-5.838-9.201c1.488-4.255,3.079-8.494,3.615-13.019"/>
	<path fill="none" stroke="#000000" stroke-width="3" stroke-linecap="round" stroke-linejoin="round" stroke-miterlimit="10" d="
		M902.972,274.795c7.845,1.558,12.889,10.264,28.749,14.374"/>
	<path fill="none" stroke="#000000" stroke-width="3" stroke-linecap="round" stroke-linejoin="round" stroke-miterlimit="10" d="
		M448.387,274.795c-8.82,2.77-13.726,10.487-28.749,14.374"/>
	<path fill="none" stroke="#000000" stroke-width="3" stroke-linecap="round" stroke-linejoin="round" stroke-miterlimit="10" d="
		M690.503,145.876c-2.331-2.725-3.155-1.651-23.358-1.809c-2.028-0.016-4.004-0.021-5.391,1.809"/>
	<path fill="none" stroke="#000000" stroke-width="3" stroke-linecap="round" stroke-linejoin="round" stroke-miterlimit="10" d="
		M602.461,1150.502c6.086,2.746,14.495,17.397,28.235,24.163c1.402,0.691,18.503,15.311,19.361,16.062
		c2.617,2.294,5.542,3.407,9.003,3.123"/>
	<path fill="none" stroke="#000000" stroke-width="3" stroke-linecap="round" stroke-linejoin="round" stroke-miterlimit="10" d="
		M499.146,360.591c-19.223,5.195-23.292,3.321-43.27,25.019c-3.524,3.828-4.949,7.77-4.345,12.713"/>
	<path fill="none" stroke="#000000" stroke-width="3" stroke-linecap="round" stroke-linejoin="round" stroke-miterlimit="10" d="
		M473.542,156.657c-30.98,15.49-26.609,13.61-28.749,13.925"/>
	<path fill="none" stroke="#000000" stroke-width="3" stroke-linecap="round" stroke-linejoin="round" stroke-miterlimit="10" d="
		M875.122,383.5c5.92,2.913,13.586,13.579,18.898,19.286c1.905,2.046,4.578,1.954,7.155,1.827"/>
	<path fill="none" stroke="#000000" stroke-width="3" stroke-linecap="round" stroke-linejoin="round" stroke-miterlimit="10" d="
		M1163.057,203.822c-9.295,0.268-11.434,3.417-18.876,1.844c-4.567-0.965-9.357,0.651-13.915-0.946"/>
	<path fill="none" stroke="#000000" stroke-width="3" stroke-linecap="round" stroke-linejoin="round" stroke-miterlimit="10" d="
		M635.252,1138.598c4.859,1.101,10.422-7.384,15.306-5.955c8.632,2.525,7.181,1.439,4.907,31.559"/>
	<path fill="none" stroke="#000000" stroke-width="3" stroke-linecap="round" stroke-linejoin="round" stroke-miterlimit="10" d="
		M221.094,204.721c-8.684,0.112-17.411,2.81-26.025-0.083c-2.295-0.771-4.479-0.822-6.766-0.815"/>
	<path fill="none" stroke="#000000" stroke-width="3" stroke-linecap="round" stroke-linejoin="round" stroke-miterlimit="10" d="
		M646.931,344.87c-2.706,11.883,2.309,29.643-0.898,37.732"/>
	<path fill="none" stroke="#000000" stroke-width="3" stroke-linecap="round" stroke-linejoin="round" stroke-miterlimit="10" d="
		M753.839,486.815c1.672,13.792,7.76,15.868,2.253,18.878c-2.409,1.317-4.61,3.166-7.643,2.683"/>
	<path fill="none" stroke="#000000" stroke-width="3" stroke-linecap="round" stroke-linejoin="round" stroke-miterlimit="10" d="
		M663.102,1145.336c-1.269,9.434-6.128,35.547-2.246,46.267"/>
	<path fill="none" stroke="#000000" stroke-width="3" stroke-linecap="round" stroke-linejoin="round" stroke-miterlimit="10" d="
		M693.198,519.157c-0.15,8.984-0.299,17.968-0.449,26.952"/>
	<path fill="none" stroke="#000000" stroke-width="3" stroke-linecap="round" stroke-linejoin="round" stroke-miterlimit="10" d="
		M604.707,374.067c-1.27-7.515-9.115-12.758-16.182-9.456c-5.238,2.447-6.304,7.847-1.705,11.14
		c3.421,2.449,2.833,5.525,9.352,9.097"/>
	<path fill="none" stroke="#000000" stroke-width="3" stroke-linecap="round" stroke-linejoin="round" stroke-miterlimit="10" d="
		M605.156,959.818c-3.786,5.398-5.916,11.366-6.304,17.967c-0.172,2.921,0.971,6.144-1.781,8.536"/>
	<path fill="none" stroke="#000000" stroke-width="3" stroke-linecap="round" stroke-linejoin="round" stroke-miterlimit="10" d="
		M701.284,671.435c2.452,3.09,1.722,4.254,1.806,23.358c0.008,1.714,0.06,3.416-0.908,4.941"/>
	<path fill="none" stroke="#000000" stroke-width="3" stroke-linecap="round" stroke-linejoin="round" stroke-miterlimit="10" d="
		M918.245,367.329c1.94,6.801,7.858,10.728,11.69,16.163c3.213,4.557,7.451,8.118,11.668,11.687"/>
	<path fill="none" stroke="#000000" stroke-width="3" stroke-linecap="round" stroke-linejoin="round" stroke-miterlimit="10" d="
		M650.075,695.691c-3.395-2.217-6.487-0.509-8.919,1.429c-7.808,6.223-17.211,10.547-23.048,19.184
		c-0.653,0.967-2.322,1.248-3.52,1.847"/>
	<path fill="none" stroke="#000000" stroke-width="3" stroke-linecap="round" stroke-linejoin="round" stroke-miterlimit="10" d="
		M857.604,193.042c-0.444-1.657-1.911-1.93-3.136-1.744c-7.315,1.108-14.912,1.493-20.671,7.134"/>
	<path fill="none" stroke="#000000" stroke-width="3" stroke-linecap="round" stroke-linejoin="round" stroke-miterlimit="10" d="
		M687.359,896.482c-5.368-2.921-10.324,0.243-14.71,2.069c-5.79,2.411-11.85,3.761-17.632,6.016"/>
	<path fill="none" stroke="#000000" stroke-width="3" stroke-linecap="round" stroke-linejoin="round" stroke-miterlimit="10" d="
		M749.348,715.456c6.015,3.603,13.374,20.215,12.487,30.537c-0.683,7.957-2.453,9.524-10.69,11.687"/>
	<path fill="none" stroke="#000000" stroke-width="3" stroke-linecap="round" stroke-linejoin="round" stroke-miterlimit="10" d="
		M1229.088,273.897c-7.599-1.137-15.071-2.846-22.465-4.921c-0.555-0.156-1.192-0.02-1.791-0.02"/>
	<path fill="none" stroke="#000000" stroke-width="3" stroke-linecap="round" stroke-linejoin="round" stroke-miterlimit="10" d="
		M531.488,216.849c0.794-1.043,2.057-2.05,3.094-1.28c4.397,3.262,9.85,4.286,14.429,7.113c2.971,1.835,5.985,3.601,8.98,5.397"/>
	<path fill="none" stroke="#000000" stroke-width="3" stroke-linecap="round" stroke-linejoin="round" stroke-miterlimit="10" d="
		M621.776,1085.593c-19.049,9.429-16.585,11.64-23.358,11.679"/>
	<path fill="none" stroke="#000000" stroke-width="3" stroke-linecap="round" stroke-linejoin="round" stroke-miterlimit="10" d="
		M708.022,1220.352c-6.733,1.603-14.24,8.239-14.13,14.37c0.115,6.416-1.708,12.977,0.652,19.321
		c0.165,0.443,0.562,1.162,0.413,1.308c-3.982,3.914-2.206,8.999-2.501,13.525c-0.23,3.523-1.426,6.829-1.504,10.321"/>
	<path fill="none" stroke="#000000" stroke-width="3" stroke-linecap="round" stroke-linejoin="round" stroke-miterlimit="10" d="
		M770.909,373.618c-10.561-0.015-4.577,8.086-22.002,4.893c-1.497-0.274-2.466-1.482-2.704-3.096"/>
	<path fill="none" stroke="#000000" stroke-width="3" stroke-linecap="round" stroke-linejoin="round" stroke-miterlimit="10" d="
		M704.877,387.319c-4.006-0.669-7.385,2.036-8.024,6.97c-0.573,4.426-3.014,9.128,1.612,13.16c0.731,0.637-0.288,3.151-0.306,4.8
		c-0.067,6.302,0.22,12.617-0.918,18.866"/>
	<path fill="none" stroke="#000000" stroke-width="3" stroke-linecap="round" stroke-linejoin="round" stroke-miterlimit="10" d="
		M697.69,1123.325c3.957,0.625,7.875,0.9,10.902,4.387c1.533,1.765,1.999,3.029,1.237,5.051
		c-2.462,6.529-4.957,13.009-12.588,15.269"/>
	<path fill="none" stroke="#000000" stroke-width="3" stroke-linecap="round" stroke-linejoin="round" stroke-miterlimit="10" d="
		M788.428,229.876c-0.46,4.442-2.533,7.171-8.095,7.445c-6.601,0.325-11.177,4.891-17.046,6.531
		c-1.444,0.403-2.71,1.446-4.057,2.194"/>
	<path fill="none" stroke="#000000" stroke-width="3" stroke-linecap="round" stroke-linejoin="round" stroke-miterlimit="10" d="
		M713.412,508.377c7.154,1.095,14.363,0.88,21.561,0.898"/>
	<path fill="none" stroke="#000000" stroke-width="3" stroke-linecap="round" stroke-linejoin="round" stroke-miterlimit="10" d="
		M765.069,356.998c-11.144-4.742-18.484-0.663-25.605,4.042c-7.295,4.82-7.577,9.743-0.898,15.723"/>
	<path fill="none" stroke="#000000" stroke-width="3" stroke-linecap="round" stroke-linejoin="round" stroke-miterlimit="10" d="
		M493.306,365.533c-8.377,1.352-11.479,6.37-21.112,6.289"/>
	<path fill="none" stroke="#000000" stroke-width="3" stroke-linecap="round" stroke-linejoin="round" stroke-miterlimit="10" d="
		M878.267,371.821c-6.289,0.378-8.819-1.95-21.112-6.289"/>
	<path fill="none" stroke="#000000" stroke-width="3" stroke-linecap="round" stroke-linejoin="round" stroke-miterlimit="10" d="
		M711.166,1495.259c-6.921,1.675-11.776-1.452-15.728-6.734c-1.459-1.95-3.669-2.069-5.834-2.25"/>
	<path fill="none" stroke="#000000" stroke-width="3" stroke-linecap="round" stroke-linejoin="round" stroke-miterlimit="10" d="
		M648.279,233.469c2.353,7.807,1.071,13.906-0.898,34.588"/>
	<path fill="none" stroke="#000000" stroke-width="3" stroke-linecap="round" stroke-linejoin="round" stroke-miterlimit="10" d="
		M580.45,504.783c-7.197,5.796-15.703,5.701-24.257,5.39"/>
	<path fill="none" stroke="#000000" stroke-width="3" stroke-linecap="round" stroke-linejoin="round" stroke-miterlimit="10" d="
		M432.216,368.228c0.464,3.64-0.71,1.818-16.135,21.59c-1.767,2.265-5.291,2.326-6.325,5.362"/>
	<path fill="none" stroke="#000000" stroke-width="3" stroke-linecap="round" stroke-linejoin="round" stroke-miterlimit="10" d="
		M694.096,1383.41c-5.839,7.905,0.41,20.576-4.941,21.561"/>
	<path fill="none" stroke="#000000" stroke-width="3" stroke-linecap="round" stroke-linejoin="round" stroke-miterlimit="10" d="
		M766.417,395.18c-6.823-0.016-13.482,1.439-20.214,2.246"/>
	<path fill="none" stroke="#000000" stroke-width="3" stroke-linecap="round" stroke-linejoin="round" stroke-miterlimit="10" d="
		M698.139,672.333c-0.299,10.93-0.599,21.861-0.898,32.791"/>
	<path fill="none" stroke="#000000" stroke-width="3" stroke-linecap="round" stroke-linejoin="round" stroke-miterlimit="10" d="
		M295.66,294.56c-27.863,9.532-14.009,4.86-19.765,6.289"/>
	<path fill="none" stroke="#000000" stroke-width="3" stroke-linecap="round" stroke-linejoin="round" stroke-miterlimit="10" d="
		M1265.024,291.415c-6.346-2.533-13.116-2.992-19.765-4.043"/>
	<path fill="none" stroke="#000000" stroke-width="3" stroke-linecap="round" stroke-linejoin="round" stroke-miterlimit="10" d="
		M570.568,236.164c6.959,2.178,13.054,6.259,19.765,8.984"/>
	<path fill="none" stroke="#000000" stroke-width="3" stroke-linecap="round" stroke-linejoin="round" stroke-miterlimit="10" d="
		M106.1,287.373c-6.624,1.171-13.462,1.297-19.765,4.043"/>
	<path fill="none" stroke="#000000" stroke-width="3" stroke-linecap="round" stroke-linejoin="round" stroke-miterlimit="10" d="
		M857.154,308.934c-2.85,1.425-10.091-1.876-14.852,4.019c-0.795,0.985-3.09,0.454-3.052,2.268c0.05,2.381,2.611,0.641,3.53,1.798"
		/>
	<path fill="none" stroke="#000000" stroke-width="3" stroke-linecap="round" stroke-linejoin="round" stroke-miterlimit="10" d="
		M637.498,1162.405c-4.965,6.268,9.013,12.828,15.273,20.663"/>
	<path fill="none" stroke="#000000" stroke-width="3" stroke-linecap="round" stroke-linejoin="round" stroke-miterlimit="10" d="
		M857.604,127.459c-5.289,10.136,1.033,3.93,5.787,19.332c0.282,0.913-0.17,2.453,0.961,2.605c4.385,0.59,6.714,4.766,11.171,5.699
		c2.499,0.523,29.144,14.919,30.145,15.487"/>
	<path fill="none" stroke="#000000" stroke-width="3" stroke-linecap="round" stroke-linejoin="round" stroke-miterlimit="10" d="
		M859.85,205.17c-8.754,9.819-14.156,0.46-17.519,6.738"/>
	<path fill="none" stroke="#000000" stroke-width="3" stroke-linecap="round" stroke-linejoin="round" stroke-miterlimit="10" d="
		M152.816,266.71c-6.167,2.007-12.333,4.023-18.866,4.492"/>
	<path fill="none" stroke="#000000" stroke-width="3" stroke-linecap="round" stroke-linejoin="round" stroke-miterlimit="10" d="
		M584.942,385.746c-5.789,1.523-12.094,2.784-11.508,4.431c0.584,1.642,1.918,2.155,3.892,1.468
		c12.604-4.385,24.794,0.051,28.278-0.06"/>
	<path fill="none" stroke="#000000" stroke-width="3" stroke-linecap="round" stroke-linejoin="round" stroke-miterlimit="10" d="
		M798.759,321.961c-21.931,4.202-15.12-2.642-25.155,4.492"/>
	<path fill="none" stroke="#000000" stroke-width="3" stroke-linecap="round" stroke-linejoin="round" stroke-miterlimit="10" d="
		M541.37,419.436c0.28,7.706-4.417,10.426-16.171,21.561"/>
	<path fill="none" stroke="#000000" stroke-width="3" stroke-linecap="round" stroke-linejoin="round" stroke-miterlimit="10" d="
		M600.215,953.979c-0.929,4.059-3.837,7.147-5.288,11.103c-2.232,6.084-1.593,16.323-3.696,15.849"/>
	<path fill="none" stroke="#000000" stroke-width="3" stroke-linecap="round" stroke-linejoin="round" stroke-miterlimit="10" d="
		M531.488,375.864c-5.559,3.133-10.482,7.044-14.321,12.168c-0.68,0.908-1.598,0.78-2.299,1.308"/>
	<path fill="none" stroke="#000000" stroke-width="3" stroke-linecap="round" stroke-linejoin="round" stroke-miterlimit="10" d="
		M676.578,1318.725c-7.186,10.181-6.713,12.498-14.374,12.578"/>
	<path fill="none" stroke="#000000" stroke-width="3" stroke-linecap="round" stroke-linejoin="round" stroke-miterlimit="10" d="
		M746.652,419.436c-6.545,1.266-15.925-0.613-17.968,1.348"/>
	<path fill="none" stroke="#000000" stroke-width="3" stroke-linecap="round" stroke-linejoin="round" stroke-miterlimit="10" d="
		M738.567,415.842c-6.066-0.574-11.993,0.701-17.968,1.348"/>
	<path fill="none" stroke="#000000" stroke-width="3" stroke-linecap="round" stroke-linejoin="round" stroke-miterlimit="10" d="
		M775.401,365.533c-4.04-0.67-2.818,7.843-11.258,5.965c-7.626-1.697-6.767,2.73-15.694,0.323"/>
	<path fill="none" stroke="#000000" stroke-width="3" stroke-linecap="round" stroke-linejoin="round" stroke-miterlimit="10" d="
		M628.065,113.983c2.93-0.19,5.503,0.355,7.672,2.661c2.827,3.005,7.113,4.503,8.948,8.569"/>
	<path fill="none" stroke="#000000" stroke-width="3" stroke-linecap="round" stroke-linejoin="round" stroke-miterlimit="10" d="
		M766.417,264.014c-5.699,2.611-11.542,4.848-17.519,6.738"/>
	<path fill="none" stroke="#000000" stroke-width="3" stroke-linecap="round" stroke-linejoin="round" stroke-miterlimit="10" d="
		M493.755,127.459c6.771,13.665-10.209,5.337-5.919,32.804c0.599,3.834,2.104,7.588,1.05,11.685
		c-0.834,3.24,2.532,4.974,3.521,7.618"/>
	<path fill="none" stroke="#000000" stroke-width="3" stroke-linecap="round" stroke-linejoin="round" stroke-miterlimit="10" d="
		M864.342,149.919c-0.179,6.357-1.326,12.598-2.071,18.887c-0.354,2.99,1.314,6.235-1.972,8.514"/>
	<path fill="none" stroke="#000000" stroke-width="3" stroke-linecap="round" stroke-linejoin="round" stroke-miterlimit="10" d="
		M613.69,380.356c-3.966-0.65-7.877-0.91-11.691,0.872c-2.043,0.955-3.375-1.7-5.378-1.322"/>
	<path fill="none" stroke="#000000" stroke-width="3" stroke-linecap="round" stroke-linejoin="round" stroke-miterlimit="10" d="
		M281.286,277.939c-5.717-0.888-11.336,1.959-17.069,0.449"/>
	<path fill="none" stroke="#000000" stroke-width="3" stroke-linecap="round" stroke-linejoin="round" stroke-miterlimit="10" d="
		M722.845,114.882c-7.384-0.633-10.716,5.2-15.044,9.437c-1.526,1.494-0.434,2.159,2.916,7.183"/>
	<path fill="none" stroke="#000000" stroke-width="3" stroke-linecap="round" stroke-linejoin="round" stroke-miterlimit="10" d="
		M637.947,415.393c-5.659,1.323-11.36,1.046-17.069,0.449"/>
	<path fill="none" stroke="#000000" stroke-width="3" stroke-linecap="round" stroke-linejoin="round" stroke-miterlimit="10" d="
		M495.103,305.34c-5.712,0.114-11.4-0.203-17.069-0.898"/>
	<path fill="none" stroke="#000000" stroke-width="3" stroke-linecap="round" stroke-linejoin="round" stroke-miterlimit="10" d="
		M643.787,1135.454c0.868,2.402,0.851,4.477-0.812,6.8c-2.329,3.251-1.544,7.629-1.859,11.21c-0.34,3.867-2.323,7.648-1.372,11.637"
		/>
	<path fill="none" stroke="#000000" stroke-width="3" stroke-linecap="round" stroke-linejoin="round" stroke-miterlimit="10" d="
		M765.968,385.297c0.753,1.332,2.038,0.88,3.144,0.883c9.416,0.031,6.778,4.461,16.173,3.626c1.208-0.107,2.465-0.283,3.592,0.432"
		/>
	<path fill="none" stroke="#000000" stroke-width="3" stroke-linecap="round" stroke-linejoin="round" stroke-miterlimit="10" d="
		M508.579,317.02c0.919-1.158,3.48,0.583,3.53-1.798c0.038-1.814-2.084-1.423-3.081-2.244c-3.535-2.91-7.255-5.197-12.128-3.594"/>
	<path fill="none" stroke="#000000" stroke-width="3" stroke-linecap="round" stroke-linejoin="round" stroke-miterlimit="10" d="
		M1023.357,312.528c-4.567-3.885-8.93-8.118-15.273-8.984"/>
	<path fill="none" stroke="#000000" stroke-width="3" stroke-linecap="round" stroke-linejoin="round" stroke-miterlimit="10" d="
		M349.564,295.458c-1.973-0.296-3.372,0.906-4.959,1.764c-3.496,1.89-7.371,1.845-11.212,1.83"/>
	<path fill="none" stroke="#000000" stroke-width="3" stroke-linecap="round" stroke-linejoin="round" stroke-miterlimit="10" d="
		M1056.597,294.56c5.39,1.797,10.781,3.594,16.171,5.39"/>
	<path fill="none" stroke="#000000" stroke-width="3" stroke-linecap="round" stroke-linejoin="round" stroke-miterlimit="10" d="
		M810.887,424.377c0.307,3.867,11.185,13.119,13.925,15.722"/>
	<path fill="none" stroke="#000000" stroke-width="3" stroke-linecap="round" stroke-linejoin="round" stroke-miterlimit="10" d="
		M580.45,262.218c7.174,3.667,14.866,5.972,22.46,8.535"/>
	<path fill="none" stroke="#000000" stroke-width="3" stroke-linecap="round" stroke-linejoin="round" stroke-miterlimit="10" d="
		M646.033,407.308c4.127-0.245,3.364,6.029-0.432,6.449c-2.222,0.245-4.731-0.366-6.756,1.188"/>
	<path fill="none" stroke="#000000" stroke-width="3" stroke-linecap="round" stroke-linejoin="round" stroke-miterlimit="10" d="
		M115.084,275.694c-5.39,0.898-10.781,1.797-16.171,2.695"/>
	<path fill="none" stroke="#000000" stroke-width="3" stroke-linecap="round" stroke-linejoin="round" stroke-miterlimit="10" d="
		M694.096,896.032c-0.041,5.244,0.341,10.499-0.449,15.722"/>
	<path fill="none" stroke="#000000" stroke-width="3" stroke-linecap="round" stroke-linejoin="round" stroke-miterlimit="10" d="
		M752.941,432.014c0.797,5.861,3.187,6.948,5.39,17.968"/>
	<path fill="none" stroke="#000000" stroke-width="3" stroke-linecap="round" stroke-linejoin="round" stroke-miterlimit="10" d="
		M684.663,399.671c-1.767,4.418-5.563,5.003-5.39,15.273"/>
	<path fill="none" stroke="#000000" stroke-width="3" stroke-linecap="round" stroke-linejoin="round" stroke-miterlimit="10" d="
		M521.156,415.393c1.446,1.853,3.579,0.959,5.374,1.412c8.124,2.054,10.459,6.084,13.941,5.326"/>
	<path fill="none" stroke="#000000" stroke-width="3" stroke-linecap="round" stroke-linejoin="round" stroke-miterlimit="10" d="
		M653.22,259.522c0.15,5.091,0.299,10.182,0.449,15.273"/>
	<path fill="none" stroke="#000000" stroke-width="3" stroke-linecap="round" stroke-linejoin="round" stroke-miterlimit="10" d="
		M521.156,397.875c-0.34,6.347-2.435,8.569,1.355,10.315c2.18,1.004,0.738,2.679,0.891,4.06"/>
	<path fill="none" stroke="#000000" stroke-width="3" stroke-linecap="round" stroke-linejoin="round" stroke-miterlimit="10" d="
		M488.814,244.25c-6.089,2.481-9.298,8.048-13.476,12.577"/>
	<path fill="none" stroke="#000000" stroke-width="3" stroke-linecap="round" stroke-linejoin="round" stroke-miterlimit="10" d="
		M710.268,133.299c0.597,11.343,2.626,13.899-4.043,18.417"/>
	<path fill="none" stroke="#000000" stroke-width="3" stroke-linecap="round" stroke-linejoin="round" stroke-miterlimit="10" d="
		M685.113,29.534c-10.631-10.044-13.885-0.554-19.315-6.738"/>
	<path fill="none" stroke="#000000" stroke-width="3" stroke-linecap="round" stroke-linejoin="round" stroke-miterlimit="10" d="
		M415.146,283.779c-5.07,0.873-10.242-1.741-15.273,0.449"/>
	<path fill="none" stroke="#000000" stroke-width="3" stroke-linecap="round" stroke-linejoin="round" stroke-miterlimit="10" d="
		M718.802,934.214c-0.477,6.299,3.403,10.209,7.636,13.925"/>
	<path fill="none" stroke="#000000" stroke-width="3" stroke-linecap="round" stroke-linejoin="round" stroke-miterlimit="10" d="
		M856.256,135.545c-2.342,0.731-4.368,1.785-7.239,1.125c-2.648-0.608-5.54,1.103-7.584,3.366"/>
	<path fill="none" stroke="#000000" stroke-width="3" stroke-linecap="round" stroke-linejoin="round" stroke-miterlimit="10" d="
		M702.631,321.511c-1.034,29.029,1.302,7.187,66.032,7.187"/>
	<path fill="none" stroke="#000000" stroke-width="3" stroke-linecap="round" stroke-linejoin="round" stroke-miterlimit="10" d="
		M1169.794,192.592c2.546-0.717,5.091-0.717,7.636,0c-2.636,8.125-10.844,7.322-17.519,15.722"/>
	<path fill="none" stroke="#000000" stroke-width="3" stroke-linecap="round" stroke-linejoin="round" stroke-miterlimit="10" d="
		M845.026,70.86c-5.151,0.577-9.776,3.083-14.823,4.043"/>
	<path fill="none" stroke="#000000" stroke-width="3" stroke-linecap="round" stroke-linejoin="round" stroke-miterlimit="10" d="
		M598.418,415.842c-4.788,0.269-9.609-0.541-14.374,0.449"/>
	<path fill="none" stroke="#000000" stroke-width="3" stroke-linecap="round" stroke-linejoin="round" stroke-miterlimit="10" d="
		M599.316,428.42c-1.362,9.367-7.059,18.681-5.84,21.561"/>
	<path fill="none" stroke="#000000" stroke-width="3" stroke-linecap="round" stroke-linejoin="round" stroke-miterlimit="10" d="
		M988.32,283.779c-4.695-0.186-9.469,1.243-13.986-1.703c-2.672-1.743-5.653,0.272-8.474,0.805"/>
	<path fill="none" stroke="#000000" stroke-width="3" stroke-linecap="round" stroke-linejoin="round" stroke-miterlimit="10" d="
		M649.177,804.846c2.912,14.281,2.695,0.269,2.695,25.155"/>
	<path fill="none" stroke="#000000" stroke-width="3" stroke-linecap="round" stroke-linejoin="round" stroke-miterlimit="10" d="
		M683.765,130.154c-4.617-0.924-9.222-2.216-13.925-0.449"/>
	<path fill="none" stroke="#000000" stroke-width="3" stroke-linecap="round" stroke-linejoin="round" stroke-miterlimit="10" d="
		M343.275,303.544c-4.828,1.07-9.605,2.228-12.128,7.187"/>
	<path fill="none" stroke="#000000" stroke-width="3" stroke-linecap="round" stroke-linejoin="round" stroke-miterlimit="10" d="
		M347.767,446.837c-4.492-0.15-8.984-0.299-13.476-0.449"/>
	<path fill="none" stroke="#000000" stroke-width="3" stroke-linecap="round" stroke-linejoin="round" stroke-miterlimit="10" d="
		M1017.068,446.388c-4.492,0.15-8.984,0.299-13.476,0.449"/>
	<path fill="none" stroke="#000000" stroke-width="3" stroke-linecap="round" stroke-linejoin="round" stroke-miterlimit="10" d="
		M1123.078,242.453c0.82,0.713-0.097,2.78,1.337,2.606c3.705-0.449,6.775,1.999,10.342,1.886"/>
	<path fill="none" stroke="#000000" stroke-width="3" stroke-linecap="round" stroke-linejoin="round" stroke-miterlimit="10" d="
		M920.491,448.634c5.098,4.588,8.322,6.206,7.484,11.204c-0.631,3.761-0.407,7.156,1.532,10.338
		c1.791,2.938,1.082,6.635,3.112,9.453"/>
	<path fill="none" stroke="#000000" stroke-width="3" stroke-linecap="round" stroke-linejoin="round" stroke-miterlimit="10" d="
		M704.428,704.226c1.112,3.17,0.09,11.089-1.797,13.925"/>
	<path fill="none" stroke="#000000" stroke-width="3" stroke-linecap="round" stroke-linejoin="round" stroke-miterlimit="10" d="
		M458.269,156.657c-5.259-1.209-8.99,2.676-13.476,4.043"/>
	<path fill="none" stroke="#000000" stroke-width="3" stroke-linecap="round" stroke-linejoin="round" stroke-miterlimit="10" d="
		M715.658,1212.715c3.641,3.924,5.691,8.803,8.086,13.476"/>
	<path fill="none" stroke="#000000" stroke-width="3" stroke-linecap="round" stroke-linejoin="round" stroke-miterlimit="10" d="
		M789.775,509.275c-4.492,1.38-8.984,1.283-13.476,0"/>
	<path fill="none" stroke="#000000" stroke-width="3" stroke-linecap="round" stroke-linejoin="round" stroke-miterlimit="10" d="
		M687.359,1179.475c-8.873,7.887-9.506,9.552-12.577,7.636"/>
	<path fill="none" stroke="#000000" stroke-width="3" stroke-linecap="round" stroke-linejoin="round" stroke-miterlimit="10" d="
		M717.005,1133.657c-0.407,4.004-16.645,27.367-21.561,26.503"/>
	<path fill="none" stroke="#000000" stroke-width="3" stroke-linecap="round" stroke-linejoin="round" stroke-miterlimit="10" d="
		M513.52,486.366c-9.412,2.346-4.182,7.161-13.909,8.64c-2.036,0.31-3.909,1.691-5.856,2.59"/>
	<path fill="none" stroke="#000000" stroke-width="3" stroke-linecap="round" stroke-linejoin="round" stroke-miterlimit="10" d="
		M668.492,403.265c4.014,2.97,4.07,7.31,4.043,11.679"/>
	<path fill="none" stroke="#000000" stroke-width="3" stroke-linecap="round" stroke-linejoin="round" stroke-miterlimit="10" d="
		M486.119,149.47c-4.039,2.104-7.512,5.3-12.128,6.289"/>
	<path fill="none" stroke="#000000" stroke-width="3" stroke-linecap="round" stroke-linejoin="round" stroke-miterlimit="10" d="
		M1183.719,321.062c-4.122-1.11-7.396-4.765-12.128-4.043"/>
	<path fill="none" stroke="#000000" stroke-width="3" stroke-linecap="round" stroke-linejoin="round" stroke-miterlimit="10" d="
		M783.711,645.831c-0.65,5.069-4.468,2.192-11.005,13.027"/>
	<path fill="none" stroke="#000000" stroke-width="3" stroke-linecap="round" stroke-linejoin="round" stroke-miterlimit="10" d="
		M385.499,282.881c-3.993-0.997-7.667-1.941-11.827,0.662c-2.152,1.346-5.841,0.237-8.836,0.237"/>
	<path fill="none" stroke="#000000" stroke-width="3" stroke-linecap="round" stroke-linejoin="round" stroke-miterlimit="10" d="
		M175.725,196.186c3.01,2.663,6.131,5.257,9.908,6.669c2.822,1.056,3.132,4.459,5.814,5.459"/>
	<path fill="none" stroke="#000000" stroke-width="3" stroke-linecap="round" stroke-linejoin="round" stroke-miterlimit="10" d="
		M644.685,407.757c-2.059,2.593-3.462,1.992-17.519,2.695"/>
	<path fill="none" stroke="#000000" stroke-width="3" stroke-linecap="round" stroke-linejoin="round" stroke-miterlimit="10" d="
		M497.798,209.213c3.671,1.747,7.22-1.638,11.679,2.695"/>
	<path fill="none" stroke="#000000" stroke-width="3" stroke-linecap="round" stroke-linejoin="round" stroke-miterlimit="10" d="
		M894.887,156.208c4.247,0.576,7.824,2.895,11.679,4.492"/>
	<path fill="none" stroke="#000000" stroke-width="3" stroke-linecap="round" stroke-linejoin="round" stroke-miterlimit="10" d="
		M752.043,415.842c3.852,1.218,7.84-1.096,11.679,0.449"/>
	<path fill="none" stroke="#000000" stroke-width="3" stroke-linecap="round" stroke-linejoin="round" stroke-miterlimit="10" d="
		M501.392,495.35c-0.243,4.084-0.163,8.105,2.246,11.679"/>
	<path fill="none" stroke="#000000" stroke-width="3" stroke-linecap="round" stroke-linejoin="round" stroke-miterlimit="10" d="
		M839.187,487.714c5.413-0.93,3.431,7.078,14.816,8.159c1.095,0.104,2.103,1.125,3.151,1.723"/>
	<path fill="none" stroke="#000000" stroke-width="3" stroke-linecap="round" stroke-linejoin="round" stroke-miterlimit="10" d="
		M396.28,332.292c-3.427,3.369-8.715,4.049-11.679,8.086"/>
	<path fill="none" stroke="#000000" stroke-width="3" stroke-linecap="round" stroke-linejoin="round" stroke-miterlimit="10" d="
		M862.545,244.25c5.641,2.744,9.822,6.948,12.577,12.577"/>
	<path fill="none" stroke="#000000" stroke-width="3" stroke-linecap="round" stroke-linejoin="round" stroke-miterlimit="10" d="
		M996.405,258.624c3.958,0.619,8.086,0.499,11.679,2.695"/>
	<path fill="none" stroke="#000000" stroke-width="3" stroke-linecap="round" stroke-linejoin="round" stroke-miterlimit="10" d="
		M1003.592,295.458c3.569,2.283,7.658,3.066,11.679,4.043"/>
	<path fill="none" stroke="#000000" stroke-width="3" stroke-linecap="round" stroke-linejoin="round" stroke-miterlimit="10" d="
		M718.802,427.522c-0.15,3.893-0.299,7.786-0.449,11.679"/>
	<path fill="none" stroke="#000000" stroke-width="3" stroke-linecap="round" stroke-linejoin="round" stroke-miterlimit="10" d="
		M671.188,886.15c-3.441,2.716-7.842,3.161-11.679,4.941"/>
	<path fill="none" stroke="#000000" stroke-width="3" stroke-linecap="round" stroke-linejoin="round" stroke-miterlimit="10" d="
		M641.99,1159.261c4.446,1.372,8.019,4.975,13.026,5.024c0.754,0.007,1.498,1.115,2.247,1.714"/>
	<path fill="none" stroke="#000000" stroke-width="3" stroke-linecap="round" stroke-linejoin="round" stroke-miterlimit="10" d="
		M711.615,428.42c1.98,2.668,3.672,5.42,3.173,8.988c-0.11,0.786,0.506,1.259,1.319,1.344"/>
	<path fill="none" stroke="#000000" stroke-width="3" stroke-linecap="round" stroke-linejoin="round" stroke-miterlimit="10" d="
		M713.412,1003.39c-12.502,2.385-13.613,14.912-20.214,14.823"/>
	<path fill="none" stroke="#000000" stroke-width="3" stroke-linecap="round" stroke-linejoin="round" stroke-miterlimit="10" d="
		M523.402,499.393c2.346,3.9,5.893,5.827,10.331,6.289"/>
	<path fill="none" stroke="#000000" stroke-width="3" stroke-linecap="round" stroke-linejoin="round" stroke-miterlimit="10" d="
		M158.206,345.319c-5.012-3.075-6.243-2.972-10.781,0.898"/>
	<path fill="none" stroke="#000000" stroke-width="3" stroke-linecap="round" stroke-linejoin="round" stroke-miterlimit="10" d="
		M646.482,273.448c-7.326-0.379-1.445,7.027-5.84,7.187"/>
	<path fill="none" stroke="#000000" stroke-width="3" stroke-linecap="round" stroke-linejoin="round" stroke-miterlimit="10" d="
		M827.957,203.373c-1.276,2.676-2.242,5.379-4.251,7.834c-1.29,1.577,0.122,5.176-2.487,6.99"/>
	<path fill="none" stroke="#000000" stroke-width="3" stroke-linecap="round" stroke-linejoin="round" stroke-miterlimit="10" d="
		M997.303,122.069c-3.309,3.716-6.439,7.429-5.465,13.04c0.324,1.866-1.199,1.932-2.62,1.335"/>
	<path fill="none" stroke="#000000" stroke-width="3" stroke-linecap="round" stroke-linejoin="round" stroke-miterlimit="10" d="
		M467.253,154.86c-3.853,0.654-7.343,2.28-10.781,4.043"/>
	<path fill="none" stroke="#000000" stroke-width="3" stroke-linecap="round" stroke-linejoin="round" stroke-miterlimit="10" d="
		M701.059,131.502c0.156,4.907,3.352,7.038,8.759,5.84"/>
	<path fill="none" stroke="#000000" stroke-width="3" stroke-linecap="round" stroke-linejoin="round" stroke-miterlimit="10" d="
		M703.08,1333.1c-3.639-0.392-6.81,0.728-16.62,8.086"/>
	<path fill="none" stroke="#000000" stroke-width="3" stroke-linecap="round" stroke-linejoin="round" stroke-miterlimit="10" d="
		M949.689,284.677c-3.594-1.714-7.187-1.004-10.781,0"/>
	<path fill="none" stroke="#000000" stroke-width="3" stroke-linecap="round" stroke-linejoin="round" stroke-miterlimit="10" d="
		M822.117,377.661c4.523,0.997,6.063,5.308,8.984,8.086"/>
	<path fill="none" stroke="#000000" stroke-width="3" stroke-linecap="round" stroke-linejoin="round" stroke-miterlimit="10" d="
		M741.711,378.559c1.829,4.416,6.192,2.92,9.433,4.043"/>
	<path fill="none" stroke="#000000" stroke-width="3" stroke-linecap="round" stroke-linejoin="round" stroke-miterlimit="10" d="
		M369.328,446.388c-4.707,2.087-8.129,6.066-12.577,8.535"/>
	<path fill="none" stroke="#000000" stroke-width="3" stroke-linecap="round" stroke-linejoin="round" stroke-miterlimit="10" d="
		M1079.057,277.49c2.995,2.638,6.6,0.809,9.882,1.348"/>
	<path fill="none" stroke="#000000" stroke-width="3" stroke-linecap="round" stroke-linejoin="round" stroke-miterlimit="10" d="
		M572.814,390.238c-3.68-0.005-6.899,1.753-10.331,2.695"/>
	<path fill="none" stroke="#000000" stroke-width="3" stroke-linecap="round" stroke-linejoin="round" stroke-miterlimit="10" d="
		M562.931,229.876c-0.666,4.824,2.618,5.961,6.289,6.738"/>
	<path fill="none" stroke="#000000" stroke-width="3" stroke-linecap="round" stroke-linejoin="round" stroke-miterlimit="10" d="
		M718.802,409.554c-3.107,0.937-6.293,0.215-9.433,0.456c-1.346,0.104-1.48-0.923-1.797-1.804"/>
	<path fill="none" stroke="#000000" stroke-width="3" stroke-linecap="round" stroke-linejoin="round" stroke-miterlimit="10" d="
		M1178.778,326.902c3.294,1.497,6.588,2.995,9.882,4.492"/>
	<path fill="none" stroke="#000000" stroke-width="3" stroke-linecap="round" stroke-linejoin="round" stroke-miterlimit="10" d="
		M1208.425,330.495c-3.079-1.79-6.452-2.772-9.882-3.594"/>
	<path fill="none" stroke="#000000" stroke-width="3" stroke-linecap="round" stroke-linejoin="round" stroke-miterlimit="10" d="
		M982.031,276.592c-3.263-0.678-6.026-5.019-9.882-1.348"/>
	<path fill="none" stroke="#000000" stroke-width="3" stroke-linecap="round" stroke-linejoin="round" stroke-miterlimit="10" d="
		M632.557,428.42c-0.424,3.294-0.774,6.588,0,9.882"/>
	<path fill="none" stroke="#000000" stroke-width="3" stroke-linecap="round" stroke-linejoin="round" stroke-miterlimit="10" d="
		M598.418,246.945c3.294,2.096,6.588,4.192,9.882,6.289"/>
	<path fill="none" stroke="#000000" stroke-width="3" stroke-linecap="round" stroke-linejoin="round" stroke-miterlimit="10" d="
		M1056.597,422.131c2.977,2.044,7.214,0.13,9.882,3.144"/>
	<path fill="none" stroke="#000000" stroke-width="3" stroke-linecap="round" stroke-linejoin="round" stroke-miterlimit="10" d="
		M646.482,589.681c1.4,3.146,1.42,6.606,2.246,9.882"/>
	<path fill="none" stroke="#000000" stroke-width="3" stroke-linecap="round" stroke-linejoin="round" stroke-miterlimit="10" d="
		M617.733,366.88c-4.118,16.473-7.386,3.133-15.211,8.623c-1.94,1.361-3.863,1.207-5.901,1.259"/>
	<path fill="none" stroke="#000000" stroke-width="3" stroke-linecap="round" stroke-linejoin="round" stroke-miterlimit="10" d="
		M293.863,423.03c-3.656-0.089-7.125,0.408-9.882,3.144"/>
	<path fill="none" stroke="#000000" stroke-width="3" stroke-linecap="round" stroke-linejoin="round" stroke-miterlimit="10" d="
		M873.326,304.442c-5.69,0.299-11.38,0.599-17.069,0.898"/>
	<path fill="none" stroke="#000000" stroke-width="3" stroke-linecap="round" stroke-linejoin="round" stroke-miterlimit="10" d="
		M547.21,431.115c-0.624-3.65-2.392-6.474-5.84-8.086"/>
	<path fill="none" stroke="#000000" stroke-width="3" stroke-linecap="round" stroke-linejoin="round" stroke-miterlimit="10" d="
		M639.744,429.768c-3.985,1.671-3.566,5.197-3.594,8.535"/>
	<path fill="none" stroke="#000000" stroke-width="3" stroke-linecap="round" stroke-linejoin="round" stroke-miterlimit="10" d="
		M354.954,449.981c-1.116,5.936,0.652,8.977,6.299,9.814c4.44,0.659,8.795,3.342,13.466,0.966"/>
	<path fill="none" stroke="#000000" stroke-width="3" stroke-linecap="round" stroke-linejoin="round" stroke-miterlimit="10" d="
		M739.914,377.661c3.882-2.528,8.182-4.581,9.905-9.425c0.872-2.453,3.465-3.397,5.333-2.993c4.646,1.006,9.421-0.843,14.03,1.013
		c0.691,0.278,2.325-1.25,3.523,0.175"/>
	<path fill="none" stroke="#000000" stroke-width="3" stroke-linecap="round" stroke-linejoin="round" stroke-miterlimit="10" d="
		M566.974,241.105c1.291-2.028,8.077-9.312-1.797-12.577"/>
	<path fill="none" stroke="#000000" stroke-width="3" stroke-linecap="round" stroke-linejoin="round" stroke-miterlimit="10" d="
		M632.557,1279.196c-3.144,0-6.289,0-9.433,0"/>
	<path fill="none" stroke="#000000" stroke-width="3" stroke-linecap="round" stroke-linejoin="round" stroke-miterlimit="10" d="
		M642.439,1151.175c3.888-0.155,6.414,2.044,8.535,4.941"/>
	<path fill="none" stroke="#000000" stroke-width="3" stroke-linecap="round" stroke-linejoin="round" stroke-miterlimit="10" d="
		M583.145,416.741c-2.995-0.299-5.989-0.599-8.984-0.898"/>
	<path fill="none" stroke="#000000" stroke-width="3" stroke-linecap="round" stroke-linejoin="round" stroke-miterlimit="10" d="
		M1066.479,276.592c2.911,1.135,5.929,1.198,8.984,0.898"/>
	<path fill="none" stroke="#000000" stroke-width="3" stroke-linecap="round" stroke-linejoin="round" stroke-miterlimit="10" d="
		M634.354,800.803c0.768,3.982,5.023,4.244,7.187,6.738"/>
	<path fill="none" stroke="#000000" stroke-width="3" stroke-linecap="round" stroke-linejoin="round" stroke-miterlimit="10" d="
		M286.676,256.827c-6.072,2.647,1.506,5.542,2.246,10.781"/>
	<path fill="none" stroke="#000000" stroke-width="3" stroke-linecap="round" stroke-linejoin="round" stroke-miterlimit="10" d="
		M999.549,277.041c-2.571,2.185-5.848-0.101-8.535,1.348"/>
	<path fill="none" stroke="#000000" stroke-width="3" stroke-linecap="round" stroke-linejoin="round" stroke-miterlimit="10" d="
		M915.55,290.068c5.155,1.531,5.155,1.531,3.144,5.84"/>
	<path fill="none" stroke="#000000" stroke-width="3" stroke-linecap="round" stroke-linejoin="round" stroke-miterlimit="10" d="
		M647.38,269.854c-0.723,4.318-0.279,8.511,1.348,12.577"/>
	<path fill="none" stroke="#000000" stroke-width="3" stroke-linecap="round" stroke-linejoin="round" stroke-miterlimit="10" d="
		M790.224,250.089c-0.583,3.501-1.999,7.652,1.348,6.738"/>
	<path fill="none" stroke="#000000" stroke-width="3" stroke-linecap="round" stroke-linejoin="round" stroke-miterlimit="10" d="
		M856.256,146.325c0.299,0.449,0.956,1.037,0.844,1.327c-1.462,3.775,1.37,7.508,0.054,11.251"/>
	<path fill="none" stroke="#000000" stroke-width="3" stroke-linecap="round" stroke-linejoin="round" stroke-miterlimit="10" d="
		M670.289,1181.272c-0.955,2.791-2.744,5.362-2.246,8.535"/>
	<path fill="none" stroke="#000000" stroke-width="3" stroke-linecap="round" stroke-linejoin="round" stroke-miterlimit="10" d="
		M713.412,1094.128c-0.898,2.695-1.797,5.39-2.695,8.085"/>
	<path fill="none" stroke="#000000" stroke-width="3" stroke-linecap="round" stroke-linejoin="round" stroke-miterlimit="10" d="
		M721.947,1107.604c-0.425,4.13-4.204,3.687-6.738,4.941"/>
	<path fill="none" stroke="#000000" stroke-width="3" stroke-linecap="round" stroke-linejoin="round" stroke-miterlimit="10" d="
		M486.119,145.876c-3.98-2.27-6.876,0.231-9.882,2.246"/>
	<path fill="none" stroke="#000000" stroke-width="3" stroke-linecap="round" stroke-linejoin="round" stroke-miterlimit="10" d="
		M207.618,219.095c2.175,2.939,2.316,7.303,6.289,8.984"/>
	<path fill="none" stroke="#000000" stroke-width="3" stroke-linecap="round" stroke-linejoin="round" stroke-miterlimit="10" d="
		M1143.741,219.095c-0.101,3.319-3.66,4.908-4.043,8.086"/>
	<path fill="none" stroke="#000000" stroke-width="3" stroke-linecap="round" stroke-linejoin="round" stroke-miterlimit="10" d="
		M915.101,457.168c2.401,2.37,0.945,5.383,1.348,8.086"/>
	<path fill="none" stroke="#000000" stroke-width="3" stroke-linecap="round" stroke-linejoin="round" stroke-miterlimit="10" d="
		M849.967,126.561c-0.028,3.637,2.164,4.853,5.39,4.941"/>
	<path fill="none" stroke="#000000" stroke-width="3" stroke-linecap="round" stroke-linejoin="round" stroke-miterlimit="10" d="
		M730.481,76.7c-2.695,0-5.39,0-8.086,0"/>
	<path fill="none" stroke="#000000" stroke-width="3" stroke-linecap="round" stroke-linejoin="round" stroke-miterlimit="10" d="
		M368.43,255.031c-2.743,0.385-5.509,0.666-8.086,1.797"/>
	<path fill="none" stroke="#000000" stroke-width="3" stroke-linecap="round" stroke-linejoin="round" stroke-miterlimit="10" d="
		M351.36,277.041c2.41,2.161,5.553-0.075,8.086,1.348"/>
	<path fill="none" stroke="#000000" stroke-width="3" stroke-linecap="round" stroke-linejoin="round" stroke-miterlimit="10" d="
		M664,597.767c-2.599,1.296-5.142,2.735-8.086,3.144"/>
	<path fill="none" stroke="#000000" stroke-width="3" stroke-linecap="round" stroke-linejoin="round" stroke-miterlimit="10" d="
		M336.088,113.983c-0.358,2.695-0.943,5.39,0,8.086"/>
	<path fill="none" stroke="#000000" stroke-width="3" stroke-linecap="round" stroke-linejoin="round" stroke-miterlimit="10" d="
		M958.673,334.987c3.207,1.029,5.861,2.888,8.086,5.39"/>
	<path fill="none" stroke="#000000" stroke-width="3" stroke-linecap="round" stroke-linejoin="round" stroke-miterlimit="10" d="
		M1127.57,397.875c-0.172,2.709,0.569,5.52-0.898,8.086"/>
	<path fill="none" stroke="#000000" stroke-width="3" stroke-linecap="round" stroke-linejoin="round" stroke-miterlimit="10" d="
		M700.385,348.912c-3.365,0.613-4.03,2.887-3.594,5.84"/>
	<path fill="none" stroke="#000000" stroke-width="3" stroke-linecap="round" stroke-linejoin="round" stroke-miterlimit="10" d="
		M877.368,162.047c3.011,1.447,5.839,3.445,9.433,3.144"/>
	<path fill="none" stroke="#000000" stroke-width="3" stroke-linecap="round" stroke-linejoin="round" stroke-miterlimit="10" d="
		M605.156,769.359c-2.142,2.68-0.242,5.123,0.449,7.636"/>
	<path fill="none" stroke="#000000" stroke-width="3" stroke-linecap="round" stroke-linejoin="round" stroke-miterlimit="10" d="
		M586.29,355.65c-3.296,0.801-4.715,3.231-4.864,6.292c-0.093,1.921-1.965,2.474-2.323,4.039"/>
	<path fill="none" stroke="#000000" stroke-width="3" stroke-linecap="round" stroke-linejoin="round" stroke-miterlimit="10" d="
		M982.031,446.388c3.622,1.612,6.236,4.483,8.984,7.187"/>
	<path fill="none" stroke="#000000" stroke-width="3" stroke-linecap="round" stroke-linejoin="round" stroke-miterlimit="10" d="
		M873.326,195.288c2.675,0.922,5.441,1.651,7.636,3.594"/>
	<path fill="none" stroke="#000000" stroke-width="3" stroke-linecap="round" stroke-linejoin="round" stroke-miterlimit="10" d="
		M477.584,195.737c-2.659,0.424-5.23,1.012-6.738,3.594"/>
	<path fill="none" stroke="#000000" stroke-width="3" stroke-linecap="round" stroke-linejoin="round" stroke-miterlimit="10" d="
		M651.872,348.912c3.365,0.613,4.03,2.887,3.594,5.84"/>
	<path fill="none" stroke="#000000" stroke-width="3" stroke-linecap="round" stroke-linejoin="round" stroke-miterlimit="10" d="
		M843.679,343.971c2.555,7.093,9.578,14.097,7.636,16.171"/>
	<path fill="none" stroke="#000000" stroke-width="3" stroke-linecap="round" stroke-linejoin="round" stroke-miterlimit="10" d="
		M645.134,985.422c1.234,2.248,1.554,4.668,1.348,7.187"/>
	<path fill="none" stroke="#000000" stroke-width="3" stroke-linecap="round" stroke-linejoin="round" stroke-miterlimit="10" d="
		M353.157,138.24c0.5,3.062,2.862,4.093,5.39,4.941"/>
	<path fill="none" stroke="#000000" stroke-width="3" stroke-linecap="round" stroke-linejoin="round" stroke-miterlimit="10" d="
		M524.75,201.127c3.012,0.349,3.988,3.751,6.738,4.492"/>
	<path fill="none" stroke="#000000" stroke-width="3" stroke-linecap="round" stroke-linejoin="round" stroke-miterlimit="10" d="
		M876.021,152.614c-4.147-8.092-4.556-9.265-12.128-6.289"/>
	<path fill="none" stroke="#000000" stroke-width="3" stroke-linecap="round" stroke-linejoin="round" stroke-miterlimit="10" d="
		M701.733,508.826c1.776,2.066,2.695,4.455,2.695,7.187"/>
	<path fill="none" stroke="#000000" stroke-width="3" stroke-linecap="round" stroke-linejoin="round" stroke-miterlimit="10" d="
		M1191.805,348.014c3.733-5.882,6.739-6.311,12.578-1.797"/>
	<path fill="none" stroke="#000000" stroke-width="3" stroke-linecap="round" stroke-linejoin="round" stroke-miterlimit="10" d="
		M1073.667,250.988c-2.396,0-4.791,0-7.187,0"/>
	<path fill="none" stroke="#000000" stroke-width="3" stroke-linecap="round" stroke-linejoin="round" stroke-miterlimit="10" d="
		M294.762,432.463c0.083,2.275-0.408,4.626,0.898,6.738"/>
	<path fill="none" stroke="#000000" stroke-width="3" stroke-linecap="round" stroke-linejoin="round" stroke-miterlimit="10" d="
		M795.165,113.983c-1.204,3.499-0.407,7.393-2.186,10.812c-0.347,0.667-0.542,2.202,1.288,1.766"/>
	<path fill="none" stroke="#000000" stroke-width="3" stroke-linecap="round" stroke-linejoin="round" stroke-miterlimit="10" d="
		M501.392,126.561c-0.138,2.637-1.261,4.468-4.043,4.941"/>
	<path fill="none" stroke="#000000" stroke-width="3" stroke-linecap="round" stroke-linejoin="round" stroke-miterlimit="10" d="
		M827.508,201.127c-3.869,0.412-6.28,2.491-7.187,6.289"/>
	<path fill="none" stroke="#000000" stroke-width="3" stroke-linecap="round" stroke-linejoin="round" stroke-miterlimit="10" d="
		M650.974,132.849c-1.854,4.738-3.431,5.569-8.535,4.492"/>
	<path fill="none" stroke="#000000" stroke-width="3" stroke-linecap="round" stroke-linejoin="round" stroke-miterlimit="10" d="
		M633.455,1260.33c-4.953,3.905-7.279,7.07-11.23,11.679"/>
	<path fill="none" stroke="#000000" stroke-width="3" stroke-linecap="round" stroke-linejoin="round" stroke-miterlimit="10" d="
		M226.933,396.078c-3.307,2.355-2.996,5.615-2.246,8.984"/>
	<path fill="none" stroke="#000000" stroke-width="3" stroke-linecap="round" stroke-linejoin="round" stroke-miterlimit="10" d="
		M1065.132,256.827c3.133,2.246,1.477,4.439,0.033,6.759c-0.81,1.301-3.866,1.377-2.279,4.022"/>
	<path fill="none" stroke="#000000" stroke-width="3" stroke-linecap="round" stroke-linejoin="round" stroke-miterlimit="10" d="
		M702.631,586.088c-2.126-1.944-4.654,2.105-6.729-0.457c-0.256-0.316,0.17-0.621,0.44-0.891"/>
	<path fill="none" stroke="#000000" stroke-width="3" stroke-linecap="round" stroke-linejoin="round" stroke-miterlimit="10" d="
		M658.61,971.048c-0.668,4.141-0.23,8.569-3.144,12.128"/>
	<path fill="none" stroke="#000000" stroke-width="3" stroke-linecap="round" stroke-linejoin="round" stroke-miterlimit="10" d="
		M749.348,1151.175c-2.119-0.138-4.082-1.372-6.289-0.898"/>
	<path fill="none" stroke="#000000" stroke-width="3" stroke-linecap="round" stroke-linejoin="round" stroke-miterlimit="10" d="
		M867.935,155.309c0.413,2.779-0.89,4.034-3.594,4.043"/>
	<path fill="none" stroke="#000000" stroke-width="3" stroke-linecap="round" stroke-linejoin="round" stroke-miterlimit="10" d="
		M576.407,372.271c2.096,2.21,4.193,1.17,6.289,0"/>
	<path fill="none" stroke="#000000" stroke-width="3" stroke-linecap="round" stroke-linejoin="round" stroke-miterlimit="10" d="
		M483.424,155.309c-0.413,2.779,0.89,4.034,3.594,4.043"/>
	<path fill="none" stroke="#000000" stroke-width="3" stroke-linecap="round" stroke-linejoin="round" stroke-miterlimit="10" d="
		M644.236,127.459c1.9,0.999,4.871-0.322,5.84,2.695"/>
	<path fill="none" stroke="#000000" stroke-width="3" stroke-linecap="round" stroke-linejoin="round" stroke-miterlimit="10" d="
		M638.396,1139.047c0.418,2.829-2.818,3.832-3.144,6.289"/>
	<path fill="none" stroke="#000000" stroke-width="3" stroke-linecap="round" stroke-linejoin="round" stroke-miterlimit="10" d="
		M250.741,348.912c-2.833-1.314-4.527,0.56-6.289,2.246"/>
	<path fill="none" stroke="#000000" stroke-width="3" stroke-linecap="round" stroke-linejoin="round" stroke-miterlimit="10" d="
		M716.107,702.429c2.957,0.683,3.442,2.809,3.144,5.39"/>
	<path fill="none" stroke="#000000" stroke-width="3" stroke-linecap="round" stroke-linejoin="round" stroke-miterlimit="10" d="
		M512.172,71.759c2.396,0.898,4.791,1.797,7.187,2.695"/>
	<path fill="none" stroke="#000000" stroke-width="3" stroke-linecap="round" stroke-linejoin="round" stroke-miterlimit="10" d="
		M930.823,248.742c1.737,1.28,3.569,2.252,5.84,1.797"/>
	<path fill="none" stroke="#000000" stroke-width="3" stroke-linecap="round" stroke-linejoin="round" stroke-miterlimit="10" d="
		M711.615,416.741c-1.947-1.069-3.893-0.077-5.84,0"/>
	<path fill="none" stroke="#000000" stroke-width="3" stroke-linecap="round" stroke-linejoin="round" stroke-miterlimit="10" d="
		M609.199,238.859c0.388,3.662,4.784,4.068,5.84,7.187"/>
	<path fill="none" stroke="#000000" stroke-width="3" stroke-linecap="round" stroke-linejoin="round" stroke-miterlimit="10" d="
		M507.68,343.971c-0.875,2.661-1.957,5.206-4.043,7.187"/>
	<path fill="none" stroke="#000000" stroke-width="3" stroke-linecap="round" stroke-linejoin="round" stroke-miterlimit="10" d="
		M618.182,358.345c0.637,2.007,0.947,3.989-0.449,5.84"/>
	<path fill="none" stroke="#000000" stroke-width="3" stroke-linecap="round" stroke-linejoin="round" stroke-miterlimit="10" d="
		M1142.843,213.255c-1.898,0.613-4.224-1.556-5.84,0.898"/>
	<path fill="none" stroke="#000000" stroke-width="3" stroke-linecap="round" stroke-linejoin="round" stroke-miterlimit="10" d="
		M367.082,462.11c-0.653,2.008-0.67,3.968,0.449,5.84"/>
	<path fill="none" stroke="#000000" stroke-width="3" stroke-linecap="round" stroke-linejoin="round" stroke-miterlimit="10" d="
		M983.378,462.11c1.109,1.873,1.214,3.823,0.449,5.84"/>
	<path fill="none" stroke="#000000" stroke-width="3" stroke-linecap="round" stroke-linejoin="round" stroke-miterlimit="10" d="
		M667.594,1271.111c-2.059,0.844-2.611,3.53-4.941,4.043"/>
	<path fill="none" stroke="#000000" stroke-width="3" stroke-linecap="round" stroke-linejoin="round" stroke-miterlimit="10" d="
		M837.39,403.265c0.703,3.285-0.139,7.23,4.027,9.021c1.193,0.513,0.9,2.744-3.558,1.679c-0.56-0.134-0.918-1.117-1.367-1.716"/>
	<path fill="none" stroke="#000000" stroke-width="3" stroke-linecap="round" stroke-linejoin="round" stroke-miterlimit="10" d="
		M580.001,508.377c-0.381,2.013-2.105,3.614-1.797,5.84"/>
	<path fill="none" stroke="#000000" stroke-width="3" stroke-linecap="round" stroke-linejoin="round" stroke-miterlimit="10" d="
		M742.16,238.859c-0.562,3.52-4.806,4.05-5.84,7.187"/>
	<path fill="none" stroke="#000000" stroke-width="3" stroke-linecap="round" stroke-linejoin="round" stroke-miterlimit="10" d="
		M646.931,146.325c0.809,1.742,0.311,3.593,0.449,5.39"/>
	<path fill="none" stroke="#000000" stroke-width="3" stroke-linecap="round" stroke-linejoin="round" stroke-miterlimit="10" d="
		M711.166,218.197c0,1.797,0,3.594,0,5.39"/>
	<path fill="none" stroke="#000000" stroke-width="3" stroke-linecap="round" stroke-linejoin="round" stroke-miterlimit="10" d="
		M446.59,299.95c-3.372-0.557-6.618,0.272-9.882,0.898"/>
	<path fill="none" stroke="#000000" stroke-width="3" stroke-linecap="round" stroke-linejoin="round" stroke-miterlimit="10" d="
		M291.168,242.453c-1.534,1.904-3.647,3.251-3.733,6.285c-0.115,4.062-6.78,1.135-7.947,2.25"/>
	<path fill="none" stroke="#000000" stroke-width="3" stroke-linecap="round" stroke-linejoin="round" stroke-miterlimit="10" d="
		M849.967,495.799c-0.041,3.116,0.733,6.489-2.695,8.535"/>
	<path fill="none" stroke="#000000" stroke-width="3" stroke-linecap="round" stroke-linejoin="round" stroke-miterlimit="10" d="
		M606.953,260.421c-0.672,3.27-0.113,6.786-3.023,9.56c-1.054,1.005-0.72,3.466-1.02,5.263"/>
	<path fill="none" stroke="#000000" stroke-width="3" stroke-linecap="round" stroke-linejoin="round" stroke-miterlimit="10" d="
		M664,911.305c-2.11-0.803-3.437,1.527-5.39,1.348"/>
	<path fill="none" stroke="#000000" stroke-width="3" stroke-linecap="round" stroke-linejoin="round" stroke-miterlimit="10" d="
		M708.471,274.795c2.111,1.028-0.541,4.221,2.246,4.941"/>
	<path fill="none" stroke="#000000" stroke-width="3" stroke-linecap="round" stroke-linejoin="round" stroke-miterlimit="10" d="
		M789.775,143.63c-0.809,1.742-0.311,3.593-0.449,5.39"/>
	<path fill="none" stroke="#000000" stroke-width="3" stroke-linecap="round" stroke-linejoin="round" stroke-miterlimit="10" d="
		M830.203,396.527c0.14,3.814,0.067,7.602-1.348,11.23"/>
	<path fill="none" stroke="#000000" stroke-width="3" stroke-linecap="round" stroke-linejoin="round" stroke-miterlimit="10" d="
		M1192.703,345.319c-1.255-1.886-3.202-1.236-4.941-1.348"/>
	<path fill="none" stroke="#000000" stroke-width="3" stroke-linecap="round" stroke-linejoin="round" stroke-miterlimit="10" d="
		M1063.784,357.447c1.647,1.198,3.294,2.396,4.941,3.594"/>
	<path fill="none" stroke="#000000" stroke-width="3" stroke-linecap="round" stroke-linejoin="round" stroke-miterlimit="10" d="
		M444.793,295.458c-1.359,1.205-3.775,1.469-3.594,4.043"/>
	<path fill="none" stroke="#000000" stroke-width="3" stroke-linecap="round" stroke-linejoin="round" stroke-miterlimit="10" d="
		M490.162,150.817c0.977,2.984,3.993,4.836,4.492,8.086"/>
	<path fill="none" stroke="#000000" stroke-width="3" stroke-linecap="round" stroke-linejoin="round" stroke-miterlimit="10" d="
		M782.139,648.077c-1.631-0.387-3.173-1.264-4.941-0.898"/>
	<path fill="none" stroke="#000000" stroke-width="3" stroke-linecap="round" stroke-linejoin="round" stroke-miterlimit="10" d="
		M663.102,1127.368c0.013,1.773,0.025,3.546-1.348,4.941"/>
	<path fill="none" stroke="#000000" stroke-width="3" stroke-linecap="round" stroke-linejoin="round" stroke-miterlimit="10" d="
		M640.642,217.298c-0.243,1.488,0.502,3.075-0.449,4.492"/>
	<path fill="none" stroke="#000000" stroke-width="3" stroke-linecap="round" stroke-linejoin="round" stroke-miterlimit="10" d="
		M652.321,1323.217c2.403,1.206,4.863,2.167,7.636,1.797"/>
	<path fill="none" stroke="#000000" stroke-width="3" stroke-linecap="round" stroke-linejoin="round" stroke-miterlimit="10" d="
		M697.69,521.853c-0.698,1.423-1.398,2.845-1.348,4.492"/>
	<path fill="none" stroke="#000000" stroke-width="3" stroke-linecap="round" stroke-linejoin="round" stroke-miterlimit="10" d="
		M680.171,1409.463c3.004,1.21,5.666-0.776,8.526-1.008c1.178-0.096,2.232-1.419,1.357-3.034"/>
	<path fill="none" stroke="#000000" stroke-width="3" stroke-linecap="round" stroke-linejoin="round" stroke-miterlimit="10" d="
		M765.519,358.345c-0.798-0.765-0.618-1.199,0.449-1.349c1.573-0.221,2.728,0.801,4.043,1.349"/>
	<path fill="none" stroke="#000000" stroke-width="3" stroke-linecap="round" stroke-linejoin="round" stroke-miterlimit="10" d="
		M905.668,299.501c2.995,0.299,5.989,0.599,8.984,0.898"/>
	<path fill="none" stroke="#000000" stroke-width="3" stroke-linecap="round" stroke-linejoin="round" stroke-miterlimit="10" d="
		M701.284,267.608c-0.951,1.417-0.207,3.004-0.449,4.492"/>
	<path fill="none" stroke="#000000" stroke-width="3" stroke-linecap="round" stroke-linejoin="round" stroke-miterlimit="10" d="
		M659.508,386.645c1.387,1.022,2.088,2.501,2.695,4.043"/>
	<path fill="none" stroke="#000000" stroke-width="3" stroke-linecap="round" stroke-linejoin="round" stroke-miterlimit="10" d="
		M793.818,691.648c-0.449,1.497-0.898,2.995-1.348,4.492"/>
	<path fill="none" stroke="#000000" stroke-width="3" stroke-linecap="round" stroke-linejoin="round" stroke-miterlimit="10" d="
		M626.268,703.328c-0.15,1.348-0.299,2.695-0.449,4.043"/>
	<path fill="none" stroke="#000000" stroke-width="3" stroke-linecap="round" stroke-linejoin="round" stroke-miterlimit="10" d="
		M847.272,344.87c1.198,2.047,1.666,4.701,4.492,5.39"/>
	<path fill="none" stroke="#000000" stroke-width="3" stroke-linecap="round" stroke-linejoin="round" stroke-miterlimit="10" d="
		M603.808,1147.133c0.15,1.348,0.299,2.695,0.449,4.043"/>
	<path fill="none" stroke="#000000" stroke-width="3" stroke-linecap="round" stroke-linejoin="round" stroke-miterlimit="10" d="
		M688.706,1409.014c-0.15,1.348-0.299,2.695-0.449,4.043"/>
	<path fill="none" stroke="#000000" stroke-width="3" stroke-linecap="round" stroke-linejoin="round" stroke-miterlimit="10" d="
		M857.154,200.678c-0.08,1.524-0.041,3.008,1.348,4.043"/>
	<path fill="none" stroke="#000000" stroke-width="3" stroke-linecap="round" stroke-linejoin="round" stroke-miterlimit="10" d="
		M494.654,201.127c-0.659,1.254-0.367,3.102-2.246,3.594"/>
	<path fill="none" stroke="#000000" stroke-width="3" stroke-linecap="round" stroke-linejoin="round" stroke-miterlimit="10" d="
		M553.049,94.668c-0.15,1.348-0.299,2.695-0.449,4.043"/>
	<path fill="none" stroke="#000000" stroke-width="3" stroke-linecap="round" stroke-linejoin="round" stroke-miterlimit="10" d="
		M798.31,94.668c0.15,1.348,0.299,2.695,0.449,4.043"/>
	<path fill="none" stroke="#000000" stroke-width="3" stroke-linecap="round" stroke-linejoin="round" stroke-miterlimit="10" d="
		M435.809,290.068c-2.204,1.469-6.992,1.331-3.144,5.84"/>
	<path fill="none" stroke="#000000" stroke-width="3" stroke-linecap="round" stroke-linejoin="round" stroke-miterlimit="10" d="
		M1002.244,125.213c-0.15,1.348-0.299,2.695-0.449,4.043"/>
	<path fill="none" stroke="#000000" stroke-width="3" stroke-linecap="round" stroke-linejoin="round" stroke-miterlimit="10" d="
		M757.433,362.837c-1.553-0.037-2.954,0.109-2.695,2.246"/>
	<path fill="none" stroke="#000000" stroke-width="3" stroke-linecap="round" stroke-linejoin="round" stroke-miterlimit="10" d="
		M650.974,271.202c0.951,1.098,0.208,2.407,0.449,3.594"/>
	<path fill="none" stroke="#000000" stroke-width="3" stroke-linecap="round" stroke-linejoin="round" stroke-miterlimit="10" d="
		M213.907,214.154c-1.537-1.857-3.609-0.507-5.39-0.898"/>
	<path fill="none" stroke="#000000" stroke-width="3" stroke-linecap="round" stroke-linejoin="round" stroke-miterlimit="10" d="
		M644.236,582.045c0.241,1.186-0.501,2.496,0.449,3.594"/>
	<path fill="none" stroke="#000000" stroke-width="3" stroke-linecap="round" stroke-linejoin="round" stroke-miterlimit="10" d="
		M670.289,147.224c-1.186,0.241-2.496-0.501-3.594,0.449"/>
	<path fill="none" stroke="#000000" stroke-width="3" stroke-linecap="round" stroke-linejoin="round" stroke-miterlimit="10" d="
		M859.85,171.031c-1.612,0.872-0.321,3.679-2.695,4.043"/>
	<path fill="none" stroke="#000000" stroke-width="3" stroke-linecap="round" stroke-linejoin="round" stroke-miterlimit="10" d="
		M283.532,236.614c-1.818,1.535-1.92,3.73-2.246,5.84"/>
	<path fill="none" stroke="#000000" stroke-width="3" stroke-linecap="round" stroke-linejoin="round" stroke-miterlimit="10" d="
		M768.214,360.142c0.646,1.784,2.575,2.87,2.695,4.941"/>
	<path fill="none" stroke="#000000" stroke-width="3" stroke-linecap="round" stroke-linejoin="round" stroke-miterlimit="10" d="
		M701.733,1139.946c0.15,1.048,0.299,2.096,0.449,3.144"/>
	<path fill="none" stroke="#000000" stroke-width="3" stroke-linecap="round" stroke-linejoin="round" stroke-miterlimit="10" d="
		M869.283,482.323c-0.892-0.188-1.606-1.444-2.695-0.449"/>
</g>
</svg>
